<?xml version="1.0" encoding="utf-8" standalone="no"?>
<!DOCTYPE svg PUBLIC "-//W3C//DTD SVG 1.1//EN"
  "http://www.w3.org/Graphics/SVG/1.1/DTD/svg11.dtd">
<svg xmlns:xlink="http://www.w3.org/1999/xlink" width="1284.195pt" height="822.025313pt" viewBox="0 0 1284.195 822.025313" xmlns="http://www.w3.org/2000/svg" version="1.1">
 <metadata>
  <rdf:RDF xmlns:dc="http://purl.org/dc/elements/1.1/" xmlns:cc="http://creativecommons.org/ns#" xmlns:rdf="http://www.w3.org/1999/02/22-rdf-syntax-ns#">
   <cc:Work>
    <dc:type rdf:resource="http://purl.org/dc/dcmitype/StillImage"/>
    <dc:date>2025-12-18T18:50:16.290456</dc:date>
    <dc:format>image/svg+xml</dc:format>
    <dc:creator>
     <cc:Agent>
      <dc:title>Matplotlib v3.10.7, https://matplotlib.org/</dc:title>
     </cc:Agent>
    </dc:creator>
   </cc:Work>
  </rdf:RDF>
 </metadata>
 <defs>
  <style type="text/css">*{stroke-linejoin: round; stroke-linecap: butt}</style>
 </defs>
 <g id="figure_1">
  <g id="patch_1">
   <path d="M 0 822.025313 
L 1284.195 822.025313 
L 1284.195 0 
L 0 0 
z
" style="fill: #ffffff"/>
  </g>
  <g id="axes_1">
   <g id="patch_2">
    <path d="M 50.69625 427.06 
L 421.635 427.06 
L 421.635 93.84 
L 50.69625 93.84 
z
" style="fill: #ffffff"/>
   </g>
   <g id="matplotlib.axis_1">
    <g id="xtick_1">
     <g id="line2d_1">
      <path d="M 142.494223 427.06 
L 142.494223 93.84 
" clip-path="url(#p5e08125f35)" style="fill: none; stroke: #cccccc; stroke-width: 0.8; stroke-linecap: round"/>
     </g>
     <g id="line2d_2"/>
     <g id="text_1">
      <!-- Baseline -->
      <g style="fill: #262626" transform="translate(123.315317 437.717813) scale(0.1 -0.1)">
       <defs>
        <path id="ArialMT-42" d="M 469 0 
L 469 4581 
L 2188 4581 
Q 2713 4581 3030 4442 
Q 3347 4303 3526 4014 
Q 3706 3725 3706 3409 
Q 3706 3116 3547 2856 
Q 3388 2597 3066 2438 
Q 3481 2316 3704 2022 
Q 3928 1728 3928 1328 
Q 3928 1006 3792 729 
Q 3656 453 3456 303 
Q 3256 153 2954 76 
Q 2653 0 2216 0 
L 469 0 
z
M 1075 2656 
L 2066 2656 
Q 2469 2656 2644 2709 
Q 2875 2778 2992 2937 
Q 3109 3097 3109 3338 
Q 3109 3566 3000 3739 
Q 2891 3913 2687 3977 
Q 2484 4041 1991 4041 
L 1075 4041 
L 1075 2656 
z
M 1075 541 
L 2216 541 
Q 2509 541 2628 563 
Q 2838 600 2978 687 
Q 3119 775 3209 942 
Q 3300 1109 3300 1328 
Q 3300 1584 3169 1773 
Q 3038 1963 2805 2039 
Q 2572 2116 2134 2116 
L 1075 2116 
L 1075 541 
z
" transform="scale(0.015625)"/>
        <path id="ArialMT-61" d="M 2588 409 
Q 2275 144 1986 34 
Q 1697 -75 1366 -75 
Q 819 -75 525 192 
Q 231 459 231 875 
Q 231 1119 342 1320 
Q 453 1522 633 1644 
Q 813 1766 1038 1828 
Q 1203 1872 1538 1913 
Q 2219 1994 2541 2106 
Q 2544 2222 2544 2253 
Q 2544 2597 2384 2738 
Q 2169 2928 1744 2928 
Q 1347 2928 1158 2789 
Q 969 2650 878 2297 
L 328 2372 
Q 403 2725 575 2942 
Q 747 3159 1072 3276 
Q 1397 3394 1825 3394 
Q 2250 3394 2515 3294 
Q 2781 3194 2906 3042 
Q 3031 2891 3081 2659 
Q 3109 2516 3109 2141 
L 3109 1391 
Q 3109 606 3145 398 
Q 3181 191 3288 0 
L 2700 0 
Q 2613 175 2588 409 
z
M 2541 1666 
Q 2234 1541 1622 1453 
Q 1275 1403 1131 1340 
Q 988 1278 909 1158 
Q 831 1038 831 891 
Q 831 666 1001 516 
Q 1172 366 1500 366 
Q 1825 366 2078 508 
Q 2331 650 2450 897 
Q 2541 1088 2541 1459 
L 2541 1666 
z
" transform="scale(0.015625)"/>
        <path id="ArialMT-73" d="M 197 991 
L 753 1078 
Q 800 744 1014 566 
Q 1228 388 1613 388 
Q 2000 388 2187 545 
Q 2375 703 2375 916 
Q 2375 1106 2209 1216 
Q 2094 1291 1634 1406 
Q 1016 1563 777 1677 
Q 538 1791 414 1992 
Q 291 2194 291 2438 
Q 291 2659 392 2848 
Q 494 3038 669 3163 
Q 800 3259 1026 3326 
Q 1253 3394 1513 3394 
Q 1903 3394 2198 3281 
Q 2494 3169 2634 2976 
Q 2775 2784 2828 2463 
L 2278 2388 
Q 2241 2644 2061 2787 
Q 1881 2931 1553 2931 
Q 1166 2931 1000 2803 
Q 834 2675 834 2503 
Q 834 2394 903 2306 
Q 972 2216 1119 2156 
Q 1203 2125 1616 2013 
Q 2213 1853 2448 1751 
Q 2684 1650 2818 1456 
Q 2953 1263 2953 975 
Q 2953 694 2789 445 
Q 2625 197 2315 61 
Q 2006 -75 1616 -75 
Q 969 -75 630 194 
Q 291 463 197 991 
z
" transform="scale(0.015625)"/>
        <path id="ArialMT-65" d="M 2694 1069 
L 3275 997 
Q 3138 488 2766 206 
Q 2394 -75 1816 -75 
Q 1088 -75 661 373 
Q 234 822 234 1631 
Q 234 2469 665 2931 
Q 1097 3394 1784 3394 
Q 2450 3394 2872 2941 
Q 3294 2488 3294 1666 
Q 3294 1616 3291 1516 
L 816 1516 
Q 847 969 1125 678 
Q 1403 388 1819 388 
Q 2128 388 2347 550 
Q 2566 713 2694 1069 
z
M 847 1978 
L 2700 1978 
Q 2663 2397 2488 2606 
Q 2219 2931 1791 2931 
Q 1403 2931 1139 2672 
Q 875 2413 847 1978 
z
" transform="scale(0.015625)"/>
        <path id="ArialMT-6c" d="M 409 0 
L 409 4581 
L 972 4581 
L 972 0 
L 409 0 
z
" transform="scale(0.015625)"/>
        <path id="ArialMT-69" d="M 425 3934 
L 425 4581 
L 988 4581 
L 988 3934 
L 425 3934 
z
M 425 0 
L 425 3319 
L 988 3319 
L 988 0 
L 425 0 
z
" transform="scale(0.015625)"/>
        <path id="ArialMT-6e" d="M 422 0 
L 422 3319 
L 928 3319 
L 928 2847 
Q 1294 3394 1984 3394 
Q 2284 3394 2536 3286 
Q 2788 3178 2913 3003 
Q 3038 2828 3088 2588 
Q 3119 2431 3119 2041 
L 3119 0 
L 2556 0 
L 2556 2019 
Q 2556 2363 2490 2533 
Q 2425 2703 2258 2804 
Q 2091 2906 1866 2906 
Q 1506 2906 1245 2678 
Q 984 2450 984 1813 
L 984 0 
L 422 0 
z
" transform="scale(0.015625)"/>
       </defs>
       <use xlink:href="#ArialMT-42"/>
       <use xlink:href="#ArialMT-61" transform="translate(66.699219 0)"/>
       <use xlink:href="#ArialMT-73" transform="translate(122.314453 0)"/>
       <use xlink:href="#ArialMT-65" transform="translate(172.314453 0)"/>
       <use xlink:href="#ArialMT-6c" transform="translate(227.929688 0)"/>
       <use xlink:href="#ArialMT-69" transform="translate(250.146484 0)"/>
       <use xlink:href="#ArialMT-6e" transform="translate(272.363281 0)"/>
       <use xlink:href="#ArialMT-65" transform="translate(327.978516 0)"/>
      </g>
     </g>
    </g>
    <g id="xtick_2">
     <g id="line2d_3">
      <path d="M 329.837027 427.06 
L 329.837027 93.84 
" clip-path="url(#p5e08125f35)" style="fill: none; stroke: #cccccc; stroke-width: 0.8; stroke-linecap: round"/>
     </g>
     <g id="line2d_4"/>
     <g id="text_2">
      <!-- PF4-A -->
      <g style="fill: #262626" transform="translate(315.667495 437.717813) scale(0.1 -0.1)">
       <defs>
        <path id="ArialMT-50" d="M 494 0 
L 494 4581 
L 2222 4581 
Q 2678 4581 2919 4538 
Q 3256 4481 3484 4323 
Q 3713 4166 3852 3881 
Q 3991 3597 3991 3256 
Q 3991 2672 3619 2267 
Q 3247 1863 2275 1863 
L 1100 1863 
L 1100 0 
L 494 0 
z
M 1100 2403 
L 2284 2403 
Q 2872 2403 3119 2622 
Q 3366 2841 3366 3238 
Q 3366 3525 3220 3729 
Q 3075 3934 2838 4000 
Q 2684 4041 2272 4041 
L 1100 4041 
L 1100 2403 
z
" transform="scale(0.015625)"/>
        <path id="ArialMT-46" d="M 525 0 
L 525 4581 
L 3616 4581 
L 3616 4041 
L 1131 4041 
L 1131 2622 
L 3281 2622 
L 3281 2081 
L 1131 2081 
L 1131 0 
L 525 0 
z
" transform="scale(0.015625)"/>
        <path id="ArialMT-34" d="M 2069 0 
L 2069 1097 
L 81 1097 
L 81 1613 
L 2172 4581 
L 2631 4581 
L 2631 1613 
L 3250 1613 
L 3250 1097 
L 2631 1097 
L 2631 0 
L 2069 0 
z
M 2069 1613 
L 2069 3678 
L 634 1613 
L 2069 1613 
z
" transform="scale(0.015625)"/>
        <path id="ArialMT-2d" d="M 203 1375 
L 203 1941 
L 1931 1941 
L 1931 1375 
L 203 1375 
z
" transform="scale(0.015625)"/>
        <path id="ArialMT-41" d="M -9 0 
L 1750 4581 
L 2403 4581 
L 4278 0 
L 3588 0 
L 3053 1388 
L 1138 1388 
L 634 0 
L -9 0 
z
M 1313 1881 
L 2866 1881 
L 2388 3150 
Q 2169 3728 2063 4100 
Q 1975 3659 1816 3225 
L 1313 1881 
z
" transform="scale(0.015625)"/>
       </defs>
       <use xlink:href="#ArialMT-50"/>
       <use xlink:href="#ArialMT-46" transform="translate(66.699219 0)"/>
       <use xlink:href="#ArialMT-34" transform="translate(127.783203 0)"/>
       <use xlink:href="#ArialMT-2d" transform="translate(183.398438 0)"/>
       <use xlink:href="#ArialMT-41" transform="translate(216.699219 0)"/>
      </g>
     </g>
    </g>
   </g>
   <g id="matplotlib.axis_2">
    <g id="ytick_1">
     <g id="line2d_5">
      <path d="M 50.69625 427.06 
L 421.635 427.06 
" clip-path="url(#p5e08125f35)" style="fill: none; stroke: #cccccc; stroke-width: 0.8; stroke-linecap: round"/>
     </g>
     <g id="line2d_6"/>
     <g id="text_3">
      <!-- 0.000 -->
      <g style="fill: #262626" transform="translate(22.174375 430.638906) scale(0.1 -0.1)">
       <defs>
        <path id="ArialMT-30" d="M 266 2259 
Q 266 3072 433 3567 
Q 600 4063 929 4331 
Q 1259 4600 1759 4600 
Q 2128 4600 2406 4451 
Q 2684 4303 2865 4023 
Q 3047 3744 3150 3342 
Q 3253 2941 3253 2259 
Q 3253 1453 3087 958 
Q 2922 463 2592 192 
Q 2263 -78 1759 -78 
Q 1097 -78 719 397 
Q 266 969 266 2259 
z
M 844 2259 
Q 844 1131 1108 757 
Q 1372 384 1759 384 
Q 2147 384 2411 759 
Q 2675 1134 2675 2259 
Q 2675 3391 2411 3762 
Q 2147 4134 1753 4134 
Q 1366 4134 1134 3806 
Q 844 3388 844 2259 
z
" transform="scale(0.015625)"/>
        <path id="ArialMT-2e" d="M 581 0 
L 581 641 
L 1222 641 
L 1222 0 
L 581 0 
z
" transform="scale(0.015625)"/>
       </defs>
       <use xlink:href="#ArialMT-30"/>
       <use xlink:href="#ArialMT-2e" transform="translate(55.615234 0)"/>
       <use xlink:href="#ArialMT-30" transform="translate(83.398438 0)"/>
       <use xlink:href="#ArialMT-30" transform="translate(139.013672 0)"/>
       <use xlink:href="#ArialMT-30" transform="translate(194.628906 0)"/>
      </g>
     </g>
    </g>
    <g id="ytick_2">
     <g id="line2d_7">
      <path d="M 50.69625 382.143293 
L 421.635 382.143293 
" clip-path="url(#p5e08125f35)" style="fill: none; stroke: #cccccc; stroke-width: 0.8; stroke-linecap: round"/>
     </g>
     <g id="line2d_8"/>
     <g id="text_4">
      <!-- 0.025 -->
      <g style="fill: #262626" transform="translate(22.174375 385.722199) scale(0.1 -0.1)">
       <defs>
        <path id="ArialMT-32" d="M 3222 541 
L 3222 0 
L 194 0 
Q 188 203 259 391 
Q 375 700 629 1000 
Q 884 1300 1366 1694 
Q 2113 2306 2375 2664 
Q 2638 3022 2638 3341 
Q 2638 3675 2398 3904 
Q 2159 4134 1775 4134 
Q 1369 4134 1125 3890 
Q 881 3647 878 3216 
L 300 3275 
Q 359 3922 746 4261 
Q 1134 4600 1788 4600 
Q 2447 4600 2831 4234 
Q 3216 3869 3216 3328 
Q 3216 3053 3103 2787 
Q 2991 2522 2730 2228 
Q 2469 1934 1863 1422 
Q 1356 997 1212 845 
Q 1069 694 975 541 
L 3222 541 
z
" transform="scale(0.015625)"/>
        <path id="ArialMT-35" d="M 266 1200 
L 856 1250 
Q 922 819 1161 601 
Q 1400 384 1738 384 
Q 2144 384 2425 690 
Q 2706 997 2706 1503 
Q 2706 1984 2436 2262 
Q 2166 2541 1728 2541 
Q 1456 2541 1237 2417 
Q 1019 2294 894 2097 
L 366 2166 
L 809 4519 
L 3088 4519 
L 3088 3981 
L 1259 3981 
L 1013 2750 
Q 1425 3038 1878 3038 
Q 2478 3038 2890 2622 
Q 3303 2206 3303 1553 
Q 3303 931 2941 478 
Q 2500 -78 1738 -78 
Q 1113 -78 717 272 
Q 322 622 266 1200 
z
" transform="scale(0.015625)"/>
       </defs>
       <use xlink:href="#ArialMT-30"/>
       <use xlink:href="#ArialMT-2e" transform="translate(55.615234 0)"/>
       <use xlink:href="#ArialMT-30" transform="translate(83.398438 0)"/>
       <use xlink:href="#ArialMT-32" transform="translate(139.013672 0)"/>
       <use xlink:href="#ArialMT-35" transform="translate(194.628906 0)"/>
      </g>
     </g>
    </g>
    <g id="ytick_3">
     <g id="line2d_9">
      <path d="M 50.69625 337.226586 
L 421.635 337.226586 
" clip-path="url(#p5e08125f35)" style="fill: none; stroke: #cccccc; stroke-width: 0.8; stroke-linecap: round"/>
     </g>
     <g id="line2d_10"/>
     <g id="text_5">
      <!-- 0.050 -->
      <g style="fill: #262626" transform="translate(22.174375 340.805493) scale(0.1 -0.1)">
       <use xlink:href="#ArialMT-30"/>
       <use xlink:href="#ArialMT-2e" transform="translate(55.615234 0)"/>
       <use xlink:href="#ArialMT-30" transform="translate(83.398438 0)"/>
       <use xlink:href="#ArialMT-35" transform="translate(139.013672 0)"/>
       <use xlink:href="#ArialMT-30" transform="translate(194.628906 0)"/>
      </g>
     </g>
    </g>
    <g id="ytick_4">
     <g id="line2d_11">
      <path d="M 50.69625 292.30988 
L 421.635 292.30988 
" clip-path="url(#p5e08125f35)" style="fill: none; stroke: #cccccc; stroke-width: 0.8; stroke-linecap: round"/>
     </g>
     <g id="line2d_12"/>
     <g id="text_6">
      <!-- 0.075 -->
      <g style="fill: #262626" transform="translate(22.174375 295.888786) scale(0.1 -0.1)">
       <defs>
        <path id="ArialMT-37" d="M 303 3981 
L 303 4522 
L 3269 4522 
L 3269 4084 
Q 2831 3619 2401 2847 
Q 1972 2075 1738 1259 
Q 1569 684 1522 0 
L 944 0 
Q 953 541 1156 1306 
Q 1359 2072 1739 2783 
Q 2119 3494 2547 3981 
L 303 3981 
z
" transform="scale(0.015625)"/>
       </defs>
       <use xlink:href="#ArialMT-30"/>
       <use xlink:href="#ArialMT-2e" transform="translate(55.615234 0)"/>
       <use xlink:href="#ArialMT-30" transform="translate(83.398438 0)"/>
       <use xlink:href="#ArialMT-37" transform="translate(139.013672 0)"/>
       <use xlink:href="#ArialMT-35" transform="translate(194.628906 0)"/>
      </g>
     </g>
    </g>
    <g id="ytick_5">
     <g id="line2d_13">
      <path d="M 50.69625 247.393173 
L 421.635 247.393173 
" clip-path="url(#p5e08125f35)" style="fill: none; stroke: #cccccc; stroke-width: 0.8; stroke-linecap: round"/>
     </g>
     <g id="line2d_14"/>
     <g id="text_7">
      <!-- 0.100 -->
      <g style="fill: #262626" transform="translate(22.174375 250.972079) scale(0.1 -0.1)">
       <defs>
        <path id="ArialMT-31" d="M 2384 0 
L 1822 0 
L 1822 3584 
Q 1619 3391 1289 3197 
Q 959 3003 697 2906 
L 697 3450 
Q 1169 3672 1522 3987 
Q 1875 4303 2022 4600 
L 2384 4600 
L 2384 0 
z
" transform="scale(0.015625)"/>
       </defs>
       <use xlink:href="#ArialMT-30"/>
       <use xlink:href="#ArialMT-2e" transform="translate(55.615234 0)"/>
       <use xlink:href="#ArialMT-31" transform="translate(83.398438 0)"/>
       <use xlink:href="#ArialMT-30" transform="translate(139.013672 0)"/>
       <use xlink:href="#ArialMT-30" transform="translate(194.628906 0)"/>
      </g>
     </g>
    </g>
    <g id="ytick_6">
     <g id="line2d_15">
      <path d="M 50.69625 202.476466 
L 421.635 202.476466 
" clip-path="url(#p5e08125f35)" style="fill: none; stroke: #cccccc; stroke-width: 0.8; stroke-linecap: round"/>
     </g>
     <g id="line2d_16"/>
     <g id="text_8">
      <!-- 0.125 -->
      <g style="fill: #262626" transform="translate(22.174375 206.055372) scale(0.1 -0.1)">
       <use xlink:href="#ArialMT-30"/>
       <use xlink:href="#ArialMT-2e" transform="translate(55.615234 0)"/>
       <use xlink:href="#ArialMT-31" transform="translate(83.398438 0)"/>
       <use xlink:href="#ArialMT-32" transform="translate(139.013672 0)"/>
       <use xlink:href="#ArialMT-35" transform="translate(194.628906 0)"/>
      </g>
     </g>
    </g>
    <g id="ytick_7">
     <g id="line2d_17">
      <path d="M 50.69625 157.559759 
L 421.635 157.559759 
" clip-path="url(#p5e08125f35)" style="fill: none; stroke: #cccccc; stroke-width: 0.8; stroke-linecap: round"/>
     </g>
     <g id="line2d_18"/>
     <g id="text_9">
      <!-- 0.150 -->
      <g style="fill: #262626" transform="translate(22.174375 161.138666) scale(0.1 -0.1)">
       <use xlink:href="#ArialMT-30"/>
       <use xlink:href="#ArialMT-2e" transform="translate(55.615234 0)"/>
       <use xlink:href="#ArialMT-31" transform="translate(83.398438 0)"/>
       <use xlink:href="#ArialMT-35" transform="translate(139.013672 0)"/>
       <use xlink:href="#ArialMT-30" transform="translate(194.628906 0)"/>
      </g>
     </g>
    </g>
    <g id="ytick_8">
     <g id="line2d_19">
      <path d="M 50.69625 112.643053 
L 421.635 112.643053 
" clip-path="url(#p5e08125f35)" style="fill: none; stroke: #cccccc; stroke-width: 0.8; stroke-linecap: round"/>
     </g>
     <g id="line2d_20"/>
     <g id="text_10">
      <!-- 0.175 -->
      <g style="fill: #262626" transform="translate(22.174375 116.221959) scale(0.1 -0.1)">
       <use xlink:href="#ArialMT-30"/>
       <use xlink:href="#ArialMT-2e" transform="translate(55.615234 0)"/>
       <use xlink:href="#ArialMT-31" transform="translate(83.398438 0)"/>
       <use xlink:href="#ArialMT-37" transform="translate(139.013672 0)"/>
       <use xlink:href="#ArialMT-35" transform="translate(194.628906 0)"/>
      </g>
     </g>
    </g>
    <g id="text_11">
     <!-- Drop Rate -->
     <g style="fill: #262626" transform="translate(15.789375 287.794063) rotate(-90) scale(0.12 -0.12)">
      <defs>
       <path id="ArialMT-44" d="M 494 0 
L 494 4581 
L 2072 4581 
Q 2606 4581 2888 4516 
Q 3281 4425 3559 4188 
Q 3922 3881 4101 3404 
Q 4281 2928 4281 2316 
Q 4281 1794 4159 1391 
Q 4038 988 3847 723 
Q 3656 459 3429 307 
Q 3203 156 2883 78 
Q 2563 0 2147 0 
L 494 0 
z
M 1100 541 
L 2078 541 
Q 2531 541 2789 625 
Q 3047 709 3200 863 
Q 3416 1078 3536 1442 
Q 3656 1806 3656 2325 
Q 3656 3044 3420 3430 
Q 3184 3816 2847 3947 
Q 2603 4041 2063 4041 
L 1100 4041 
L 1100 541 
z
" transform="scale(0.015625)"/>
       <path id="ArialMT-72" d="M 416 0 
L 416 3319 
L 922 3319 
L 922 2816 
Q 1116 3169 1280 3281 
Q 1444 3394 1641 3394 
Q 1925 3394 2219 3213 
L 2025 2691 
Q 1819 2813 1613 2813 
Q 1428 2813 1281 2702 
Q 1134 2591 1072 2394 
Q 978 2094 978 1738 
L 978 0 
L 416 0 
z
" transform="scale(0.015625)"/>
       <path id="ArialMT-6f" d="M 213 1659 
Q 213 2581 725 3025 
Q 1153 3394 1769 3394 
Q 2453 3394 2887 2945 
Q 3322 2497 3322 1706 
Q 3322 1066 3130 698 
Q 2938 331 2570 128 
Q 2203 -75 1769 -75 
Q 1072 -75 642 372 
Q 213 819 213 1659 
z
M 791 1659 
Q 791 1022 1069 705 
Q 1347 388 1769 388 
Q 2188 388 2466 706 
Q 2744 1025 2744 1678 
Q 2744 2294 2464 2611 
Q 2184 2928 1769 2928 
Q 1347 2928 1069 2612 
Q 791 2297 791 1659 
z
" transform="scale(0.015625)"/>
       <path id="ArialMT-70" d="M 422 -1272 
L 422 3319 
L 934 3319 
L 934 2888 
Q 1116 3141 1344 3267 
Q 1572 3394 1897 3394 
Q 2322 3394 2647 3175 
Q 2972 2956 3137 2557 
Q 3303 2159 3303 1684 
Q 3303 1175 3120 767 
Q 2938 359 2589 142 
Q 2241 -75 1856 -75 
Q 1575 -75 1351 44 
Q 1128 163 984 344 
L 984 -1272 
L 422 -1272 
z
M 931 1641 
Q 931 1000 1190 694 
Q 1450 388 1819 388 
Q 2194 388 2461 705 
Q 2728 1022 2728 1688 
Q 2728 2322 2467 2637 
Q 2206 2953 1844 2953 
Q 1484 2953 1207 2617 
Q 931 2281 931 1641 
z
" transform="scale(0.015625)"/>
       <path id="ArialMT-20" transform="scale(0.015625)"/>
       <path id="ArialMT-52" d="M 503 0 
L 503 4581 
L 2534 4581 
Q 3147 4581 3465 4457 
Q 3784 4334 3975 4021 
Q 4166 3709 4166 3331 
Q 4166 2844 3850 2509 
Q 3534 2175 2875 2084 
Q 3116 1969 3241 1856 
Q 3506 1613 3744 1247 
L 4541 0 
L 3778 0 
L 3172 953 
Q 2906 1366 2734 1584 
Q 2563 1803 2427 1890 
Q 2291 1978 2150 2013 
Q 2047 2034 1813 2034 
L 1109 2034 
L 1109 0 
L 503 0 
z
M 1109 2559 
L 2413 2559 
Q 2828 2559 3062 2645 
Q 3297 2731 3419 2920 
Q 3541 3109 3541 3331 
Q 3541 3656 3305 3865 
Q 3069 4075 2559 4075 
L 1109 4075 
L 1109 2559 
z
" transform="scale(0.015625)"/>
       <path id="ArialMT-74" d="M 1650 503 
L 1731 6 
Q 1494 -44 1306 -44 
Q 1000 -44 831 53 
Q 663 150 594 308 
Q 525 466 525 972 
L 525 2881 
L 113 2881 
L 113 3319 
L 525 3319 
L 525 4141 
L 1084 4478 
L 1084 3319 
L 1650 3319 
L 1650 2881 
L 1084 2881 
L 1084 941 
Q 1084 700 1114 631 
Q 1144 563 1211 522 
Q 1278 481 1403 481 
Q 1497 481 1650 503 
z
" transform="scale(0.015625)"/>
      </defs>
      <use xlink:href="#ArialMT-44"/>
      <use xlink:href="#ArialMT-72" transform="translate(72.216797 0)"/>
      <use xlink:href="#ArialMT-6f" transform="translate(105.517578 0)"/>
      <use xlink:href="#ArialMT-70" transform="translate(161.132812 0)"/>
      <use xlink:href="#ArialMT-20" transform="translate(216.748047 0)"/>
      <use xlink:href="#ArialMT-52" transform="translate(244.53125 0)"/>
      <use xlink:href="#ArialMT-61" transform="translate(316.748047 0)"/>
      <use xlink:href="#ArialMT-74" transform="translate(372.363281 0)"/>
      <use xlink:href="#ArialMT-65" transform="translate(400.146484 0)"/>
     </g>
    </g>
   </g>
   <g id="patch_3">
    <path d="M 67.557102 427.06 
L 217.431345 427.06 
L 217.431345 173.102651 
L 67.557102 173.102651 
z
" clip-path="url(#p5e08125f35)" style="fill: #e74c3c; opacity: 0.8"/>
   </g>
   <g id="patch_4">
    <path d="M 254.899905 427.06 
L 404.774148 427.06 
L 404.774148 427.06 
L 254.899905 427.06 
z
" clip-path="url(#p5e08125f35)" style="fill: #27ae60; opacity: 0.8"/>
   </g>
   <g id="LineCollection_1">
    <path d="M 142.494223 236.497683 
L 142.494223 109.707619 
" clip-path="url(#p5e08125f35)" style="fill: none; stroke: #000000; stroke-width: 1.5"/>
    <path d="M 329.837027 427.06 
L 329.837027 427.06 
" clip-path="url(#p5e08125f35)" style="fill: none; stroke: #000000; stroke-width: 1.5"/>
   </g>
   <g id="line2d_21">
    <defs>
     <path id="m1ab70912f0" d="M 5 0 
L -5 -0 
" style="stroke: #000000"/>
    </defs>
    <g clip-path="url(#p5e08125f35)">
     <use xlink:href="#m1ab70912f0" x="142.494223" y="236.497683" style="fill: #e74c3c; stroke: #000000"/>
     <use xlink:href="#m1ab70912f0" x="329.837027" y="427.06" style="fill: #e74c3c; stroke: #000000"/>
    </g>
   </g>
   <g id="line2d_22">
    <g clip-path="url(#p5e08125f35)">
     <use xlink:href="#m1ab70912f0" x="142.494223" y="109.707619" style="fill: #e74c3c; stroke: #000000"/>
     <use xlink:href="#m1ab70912f0" x="329.837027" y="427.06" style="fill: #e74c3c; stroke: #000000"/>
    </g>
   </g>
   <g id="patch_5">
    <path d="M 50.69625 427.06 
L 50.69625 93.84 
" style="fill: none; stroke: #cccccc; stroke-linejoin: miter; stroke-linecap: square"/>
   </g>
   <g id="patch_6">
    <path d="M 50.69625 427.06 
L 421.635 427.06 
" style="fill: none; stroke: #cccccc; stroke-linejoin: miter; stroke-linecap: square"/>
   </g>
   <g id="text_12">
    <!-- Variation 1: PF4-A -->
    <g style="fill: #262626" transform="translate(179.491875 87.84) scale(0.14 -0.14)">
     <defs>
      <path id="ArialMT-56" d="M 1803 0 
L 28 4581 
L 684 4581 
L 1875 1253 
Q 2019 853 2116 503 
Q 2222 878 2363 1253 
L 3600 4581 
L 4219 4581 
L 2425 0 
L 1803 0 
z
" transform="scale(0.015625)"/>
      <path id="ArialMT-3a" d="M 578 2678 
L 578 3319 
L 1219 3319 
L 1219 2678 
L 578 2678 
z
M 578 0 
L 578 641 
L 1219 641 
L 1219 0 
L 578 0 
z
" transform="scale(0.015625)"/>
     </defs>
     <use xlink:href="#ArialMT-56"/>
     <use xlink:href="#ArialMT-61" transform="translate(59.324219 0)"/>
     <use xlink:href="#ArialMT-72" transform="translate(114.939453 0)"/>
     <use xlink:href="#ArialMT-69" transform="translate(148.240234 0)"/>
     <use xlink:href="#ArialMT-61" transform="translate(170.457031 0)"/>
     <use xlink:href="#ArialMT-74" transform="translate(226.072266 0)"/>
     <use xlink:href="#ArialMT-69" transform="translate(253.855469 0)"/>
     <use xlink:href="#ArialMT-6f" transform="translate(276.072266 0)"/>
     <use xlink:href="#ArialMT-6e" transform="translate(331.6875 0)"/>
     <use xlink:href="#ArialMT-20" transform="translate(387.302734 0)"/>
     <use xlink:href="#ArialMT-31" transform="translate(415.085938 0)"/>
     <use xlink:href="#ArialMT-3a" transform="translate(470.701172 0)"/>
     <use xlink:href="#ArialMT-20" transform="translate(498.484375 0)"/>
     <use xlink:href="#ArialMT-50" transform="translate(526.267578 0)"/>
     <use xlink:href="#ArialMT-46" transform="translate(592.966797 0)"/>
     <use xlink:href="#ArialMT-34" transform="translate(654.050781 0)"/>
     <use xlink:href="#ArialMT-2d" transform="translate(709.666016 0)"/>
     <use xlink:href="#ArialMT-41" transform="translate(742.966797 0)"/>
    </g>
   </g>
  </g>
  <g id="axes_2">
   <g id="patch_7">
    <path d="M 478.37625 427.06 
L 849.315 427.06 
L 849.315 93.84 
L 478.37625 93.84 
z
" style="fill: #ffffff"/>
   </g>
   <g id="matplotlib.axis_3">
    <g id="xtick_3">
     <g id="line2d_23">
      <path d="M 570.174223 427.06 
L 570.174223 93.84 
" clip-path="url(#p3f0d724a25)" style="fill: none; stroke: #cccccc; stroke-width: 0.8; stroke-linecap: round"/>
     </g>
     <g id="line2d_24"/>
     <g id="text_13">
      <!-- Baseline -->
      <g style="fill: #262626" transform="translate(550.995317 437.717813) scale(0.1 -0.1)">
       <use xlink:href="#ArialMT-42"/>
       <use xlink:href="#ArialMT-61" transform="translate(66.699219 0)"/>
       <use xlink:href="#ArialMT-73" transform="translate(122.314453 0)"/>
       <use xlink:href="#ArialMT-65" transform="translate(172.314453 0)"/>
       <use xlink:href="#ArialMT-6c" transform="translate(227.929688 0)"/>
       <use xlink:href="#ArialMT-69" transform="translate(250.146484 0)"/>
       <use xlink:href="#ArialMT-6e" transform="translate(272.363281 0)"/>
       <use xlink:href="#ArialMT-65" transform="translate(327.978516 0)"/>
      </g>
     </g>
    </g>
    <g id="xtick_4">
     <g id="line2d_25">
      <path d="M 757.517027 427.06 
L 757.517027 93.84 
" clip-path="url(#p3f0d724a25)" style="fill: none; stroke: #cccccc; stroke-width: 0.8; stroke-linecap: round"/>
     </g>
     <g id="line2d_26"/>
     <g id="text_14">
      <!-- PF4-B -->
      <g style="fill: #262626" transform="translate(743.347495 437.717813) scale(0.1 -0.1)">
       <use xlink:href="#ArialMT-50"/>
       <use xlink:href="#ArialMT-46" transform="translate(66.699219 0)"/>
       <use xlink:href="#ArialMT-34" transform="translate(127.783203 0)"/>
       <use xlink:href="#ArialMT-2d" transform="translate(183.398438 0)"/>
       <use xlink:href="#ArialMT-42" transform="translate(216.699219 0)"/>
      </g>
     </g>
    </g>
   </g>
   <g id="matplotlib.axis_4">
    <g id="ytick_9">
     <g id="line2d_27">
      <path d="M 478.37625 427.06 
L 849.315 427.06 
" clip-path="url(#p3f0d724a25)" style="fill: none; stroke: #cccccc; stroke-width: 0.8; stroke-linecap: round"/>
     </g>
     <g id="line2d_28"/>
     <g id="text_15">
      <!-- 0.000 -->
      <g style="fill: #262626" transform="translate(449.854375 430.638906) scale(0.1 -0.1)">
       <use xlink:href="#ArialMT-30"/>
       <use xlink:href="#ArialMT-2e" transform="translate(55.615234 0)"/>
       <use xlink:href="#ArialMT-30" transform="translate(83.398438 0)"/>
       <use xlink:href="#ArialMT-30" transform="translate(139.013672 0)"/>
       <use xlink:href="#ArialMT-30" transform="translate(194.628906 0)"/>
      </g>
     </g>
    </g>
    <g id="ytick_10">
     <g id="line2d_29">
      <path d="M 478.37625 382.143293 
L 849.315 382.143293 
" clip-path="url(#p3f0d724a25)" style="fill: none; stroke: #cccccc; stroke-width: 0.8; stroke-linecap: round"/>
     </g>
     <g id="line2d_30"/>
     <g id="text_16">
      <!-- 0.025 -->
      <g style="fill: #262626" transform="translate(449.854375 385.722199) scale(0.1 -0.1)">
       <use xlink:href="#ArialMT-30"/>
       <use xlink:href="#ArialMT-2e" transform="translate(55.615234 0)"/>
       <use xlink:href="#ArialMT-30" transform="translate(83.398438 0)"/>
       <use xlink:href="#ArialMT-32" transform="translate(139.013672 0)"/>
       <use xlink:href="#ArialMT-35" transform="translate(194.628906 0)"/>
      </g>
     </g>
    </g>
    <g id="ytick_11">
     <g id="line2d_31">
      <path d="M 478.37625 337.226586 
L 849.315 337.226586 
" clip-path="url(#p3f0d724a25)" style="fill: none; stroke: #cccccc; stroke-width: 0.8; stroke-linecap: round"/>
     </g>
     <g id="line2d_32"/>
     <g id="text_17">
      <!-- 0.050 -->
      <g style="fill: #262626" transform="translate(449.854375 340.805493) scale(0.1 -0.1)">
       <use xlink:href="#ArialMT-30"/>
       <use xlink:href="#ArialMT-2e" transform="translate(55.615234 0)"/>
       <use xlink:href="#ArialMT-30" transform="translate(83.398438 0)"/>
       <use xlink:href="#ArialMT-35" transform="translate(139.013672 0)"/>
       <use xlink:href="#ArialMT-30" transform="translate(194.628906 0)"/>
      </g>
     </g>
    </g>
    <g id="ytick_12">
     <g id="line2d_33">
      <path d="M 478.37625 292.30988 
L 849.315 292.30988 
" clip-path="url(#p3f0d724a25)" style="fill: none; stroke: #cccccc; stroke-width: 0.8; stroke-linecap: round"/>
     </g>
     <g id="line2d_34"/>
     <g id="text_18">
      <!-- 0.075 -->
      <g style="fill: #262626" transform="translate(449.854375 295.888786) scale(0.1 -0.1)">
       <use xlink:href="#ArialMT-30"/>
       <use xlink:href="#ArialMT-2e" transform="translate(55.615234 0)"/>
       <use xlink:href="#ArialMT-30" transform="translate(83.398438 0)"/>
       <use xlink:href="#ArialMT-37" transform="translate(139.013672 0)"/>
       <use xlink:href="#ArialMT-35" transform="translate(194.628906 0)"/>
      </g>
     </g>
    </g>
    <g id="ytick_13">
     <g id="line2d_35">
      <path d="M 478.37625 247.393173 
L 849.315 247.393173 
" clip-path="url(#p3f0d724a25)" style="fill: none; stroke: #cccccc; stroke-width: 0.8; stroke-linecap: round"/>
     </g>
     <g id="line2d_36"/>
     <g id="text_19">
      <!-- 0.100 -->
      <g style="fill: #262626" transform="translate(449.854375 250.972079) scale(0.1 -0.1)">
       <use xlink:href="#ArialMT-30"/>
       <use xlink:href="#ArialMT-2e" transform="translate(55.615234 0)"/>
       <use xlink:href="#ArialMT-31" transform="translate(83.398438 0)"/>
       <use xlink:href="#ArialMT-30" transform="translate(139.013672 0)"/>
       <use xlink:href="#ArialMT-30" transform="translate(194.628906 0)"/>
      </g>
     </g>
    </g>
    <g id="ytick_14">
     <g id="line2d_37">
      <path d="M 478.37625 202.476466 
L 849.315 202.476466 
" clip-path="url(#p3f0d724a25)" style="fill: none; stroke: #cccccc; stroke-width: 0.8; stroke-linecap: round"/>
     </g>
     <g id="line2d_38"/>
     <g id="text_20">
      <!-- 0.125 -->
      <g style="fill: #262626" transform="translate(449.854375 206.055372) scale(0.1 -0.1)">
       <use xlink:href="#ArialMT-30"/>
       <use xlink:href="#ArialMT-2e" transform="translate(55.615234 0)"/>
       <use xlink:href="#ArialMT-31" transform="translate(83.398438 0)"/>
       <use xlink:href="#ArialMT-32" transform="translate(139.013672 0)"/>
       <use xlink:href="#ArialMT-35" transform="translate(194.628906 0)"/>
      </g>
     </g>
    </g>
    <g id="ytick_15">
     <g id="line2d_39">
      <path d="M 478.37625 157.559759 
L 849.315 157.559759 
" clip-path="url(#p3f0d724a25)" style="fill: none; stroke: #cccccc; stroke-width: 0.8; stroke-linecap: round"/>
     </g>
     <g id="line2d_40"/>
     <g id="text_21">
      <!-- 0.150 -->
      <g style="fill: #262626" transform="translate(449.854375 161.138666) scale(0.1 -0.1)">
       <use xlink:href="#ArialMT-30"/>
       <use xlink:href="#ArialMT-2e" transform="translate(55.615234 0)"/>
       <use xlink:href="#ArialMT-31" transform="translate(83.398438 0)"/>
       <use xlink:href="#ArialMT-35" transform="translate(139.013672 0)"/>
       <use xlink:href="#ArialMT-30" transform="translate(194.628906 0)"/>
      </g>
     </g>
    </g>
    <g id="ytick_16">
     <g id="line2d_41">
      <path d="M 478.37625 112.643053 
L 849.315 112.643053 
" clip-path="url(#p3f0d724a25)" style="fill: none; stroke: #cccccc; stroke-width: 0.8; stroke-linecap: round"/>
     </g>
     <g id="line2d_42"/>
     <g id="text_22">
      <!-- 0.175 -->
      <g style="fill: #262626" transform="translate(449.854375 116.221959) scale(0.1 -0.1)">
       <use xlink:href="#ArialMT-30"/>
       <use xlink:href="#ArialMT-2e" transform="translate(55.615234 0)"/>
       <use xlink:href="#ArialMT-31" transform="translate(83.398438 0)"/>
       <use xlink:href="#ArialMT-37" transform="translate(139.013672 0)"/>
       <use xlink:href="#ArialMT-35" transform="translate(194.628906 0)"/>
      </g>
     </g>
    </g>
    <g id="text_23">
     <!-- Drop Rate -->
     <g style="fill: #262626" transform="translate(443.469375 287.794063) rotate(-90) scale(0.12 -0.12)">
      <use xlink:href="#ArialMT-44"/>
      <use xlink:href="#ArialMT-72" transform="translate(72.216797 0)"/>
      <use xlink:href="#ArialMT-6f" transform="translate(105.517578 0)"/>
      <use xlink:href="#ArialMT-70" transform="translate(161.132812 0)"/>
      <use xlink:href="#ArialMT-20" transform="translate(216.748047 0)"/>
      <use xlink:href="#ArialMT-52" transform="translate(244.53125 0)"/>
      <use xlink:href="#ArialMT-61" transform="translate(316.748047 0)"/>
      <use xlink:href="#ArialMT-74" transform="translate(372.363281 0)"/>
      <use xlink:href="#ArialMT-65" transform="translate(400.146484 0)"/>
     </g>
    </g>
   </g>
   <g id="patch_8">
    <path d="M 495.237102 427.06 
L 645.111345 427.06 
L 645.111345 173.102651 
L 495.237102 173.102651 
z
" clip-path="url(#p3f0d724a25)" style="fill: #e74c3c; opacity: 0.8"/>
   </g>
   <g id="patch_9">
    <path d="M 682.579905 427.06 
L 832.454148 427.06 
L 832.454148 427.06 
L 682.579905 427.06 
z
" clip-path="url(#p3f0d724a25)" style="fill: #27ae60; opacity: 0.8"/>
   </g>
   <g id="LineCollection_2">
    <path d="M 570.174223 236.497683 
L 570.174223 109.707619 
" clip-path="url(#p3f0d724a25)" style="fill: none; stroke: #000000; stroke-width: 1.5"/>
    <path d="M 757.517027 427.06 
L 757.517027 427.06 
" clip-path="url(#p3f0d724a25)" style="fill: none; stroke: #000000; stroke-width: 1.5"/>
   </g>
   <g id="line2d_43">
    <g clip-path="url(#p3f0d724a25)">
     <use xlink:href="#m1ab70912f0" x="570.174223" y="236.497683" style="fill: #e74c3c; stroke: #000000"/>
     <use xlink:href="#m1ab70912f0" x="757.517027" y="427.06" style="fill: #e74c3c; stroke: #000000"/>
    </g>
   </g>
   <g id="line2d_44">
    <g clip-path="url(#p3f0d724a25)">
     <use xlink:href="#m1ab70912f0" x="570.174223" y="109.707619" style="fill: #e74c3c; stroke: #000000"/>
     <use xlink:href="#m1ab70912f0" x="757.517027" y="427.06" style="fill: #e74c3c; stroke: #000000"/>
    </g>
   </g>
   <g id="patch_10">
    <path d="M 478.37625 427.06 
L 478.37625 93.84 
" style="fill: none; stroke: #cccccc; stroke-linejoin: miter; stroke-linecap: square"/>
   </g>
   <g id="patch_11">
    <path d="M 478.37625 427.06 
L 849.315 427.06 
" style="fill: none; stroke: #cccccc; stroke-linejoin: miter; stroke-linecap: square"/>
   </g>
   <g id="text_24">
    <!-- Variation 2: PF4-B -->
    <g style="fill: #262626" transform="translate(607.171875 87.84) scale(0.14 -0.14)">
     <use xlink:href="#ArialMT-56"/>
     <use xlink:href="#ArialMT-61" transform="translate(59.324219 0)"/>
     <use xlink:href="#ArialMT-72" transform="translate(114.939453 0)"/>
     <use xlink:href="#ArialMT-69" transform="translate(148.240234 0)"/>
     <use xlink:href="#ArialMT-61" transform="translate(170.457031 0)"/>
     <use xlink:href="#ArialMT-74" transform="translate(226.072266 0)"/>
     <use xlink:href="#ArialMT-69" transform="translate(253.855469 0)"/>
     <use xlink:href="#ArialMT-6f" transform="translate(276.072266 0)"/>
     <use xlink:href="#ArialMT-6e" transform="translate(331.6875 0)"/>
     <use xlink:href="#ArialMT-20" transform="translate(387.302734 0)"/>
     <use xlink:href="#ArialMT-32" transform="translate(415.085938 0)"/>
     <use xlink:href="#ArialMT-3a" transform="translate(470.701172 0)"/>
     <use xlink:href="#ArialMT-20" transform="translate(498.484375 0)"/>
     <use xlink:href="#ArialMT-50" transform="translate(526.267578 0)"/>
     <use xlink:href="#ArialMT-46" transform="translate(592.966797 0)"/>
     <use xlink:href="#ArialMT-34" transform="translate(654.050781 0)"/>
     <use xlink:href="#ArialMT-2d" transform="translate(709.666016 0)"/>
     <use xlink:href="#ArialMT-42" transform="translate(742.966797 0)"/>
    </g>
   </g>
  </g>
  <g id="axes_3">
   <g id="patch_12">
    <path d="M 906.05625 427.06 
L 1276.995 427.06 
L 1276.995 93.84 
L 906.05625 93.84 
z
" style="fill: #ffffff"/>
   </g>
   <g id="matplotlib.axis_5">
    <g id="xtick_5">
     <g id="line2d_45">
      <path d="M 997.854223 427.06 
L 997.854223 93.84 
" clip-path="url(#p747ff07503)" style="fill: none; stroke: #cccccc; stroke-width: 0.8; stroke-linecap: round"/>
     </g>
     <g id="line2d_46"/>
     <g id="text_25">
      <!-- Baseline -->
      <g style="fill: #262626" transform="translate(978.675317 437.717813) scale(0.1 -0.1)">
       <use xlink:href="#ArialMT-42"/>
       <use xlink:href="#ArialMT-61" transform="translate(66.699219 0)"/>
       <use xlink:href="#ArialMT-73" transform="translate(122.314453 0)"/>
       <use xlink:href="#ArialMT-65" transform="translate(172.314453 0)"/>
       <use xlink:href="#ArialMT-6c" transform="translate(227.929688 0)"/>
       <use xlink:href="#ArialMT-69" transform="translate(250.146484 0)"/>
       <use xlink:href="#ArialMT-6e" transform="translate(272.363281 0)"/>
       <use xlink:href="#ArialMT-65" transform="translate(327.978516 0)"/>
      </g>
     </g>
    </g>
    <g id="xtick_6">
     <g id="line2d_47">
      <path d="M 1185.197027 427.06 
L 1185.197027 93.84 
" clip-path="url(#p747ff07503)" style="fill: none; stroke: #cccccc; stroke-width: 0.8; stroke-linecap: round"/>
     </g>
     <g id="line2d_48"/>
     <g id="text_26">
      <!-- PF4-C -->
      <g style="fill: #262626" transform="translate(1170.751714 437.717813) scale(0.1 -0.1)">
       <defs>
        <path id="ArialMT-43" d="M 3763 1606 
L 4369 1453 
Q 4178 706 3683 314 
Q 3188 -78 2472 -78 
Q 1731 -78 1267 223 
Q 803 525 561 1097 
Q 319 1669 319 2325 
Q 319 3041 592 3573 
Q 866 4106 1370 4382 
Q 1875 4659 2481 4659 
Q 3169 4659 3637 4309 
Q 4106 3959 4291 3325 
L 3694 3184 
Q 3534 3684 3231 3912 
Q 2928 4141 2469 4141 
Q 1941 4141 1586 3887 
Q 1231 3634 1087 3207 
Q 944 2781 944 2328 
Q 944 1744 1114 1308 
Q 1284 872 1643 656 
Q 2003 441 2422 441 
Q 2931 441 3284 734 
Q 3638 1028 3763 1606 
z
" transform="scale(0.015625)"/>
       </defs>
       <use xlink:href="#ArialMT-50"/>
       <use xlink:href="#ArialMT-46" transform="translate(66.699219 0)"/>
       <use xlink:href="#ArialMT-34" transform="translate(127.783203 0)"/>
       <use xlink:href="#ArialMT-2d" transform="translate(183.398438 0)"/>
       <use xlink:href="#ArialMT-43" transform="translate(216.699219 0)"/>
      </g>
     </g>
    </g>
   </g>
   <g id="matplotlib.axis_6">
    <g id="ytick_17">
     <g id="line2d_49">
      <path d="M 906.05625 427.06 
L 1276.995 427.06 
" clip-path="url(#p747ff07503)" style="fill: none; stroke: #cccccc; stroke-width: 0.8; stroke-linecap: round"/>
     </g>
     <g id="line2d_50"/>
     <g id="text_27">
      <!-- 0.000 -->
      <g style="fill: #262626" transform="translate(877.534375 430.638906) scale(0.1 -0.1)">
       <use xlink:href="#ArialMT-30"/>
       <use xlink:href="#ArialMT-2e" transform="translate(55.615234 0)"/>
       <use xlink:href="#ArialMT-30" transform="translate(83.398438 0)"/>
       <use xlink:href="#ArialMT-30" transform="translate(139.013672 0)"/>
       <use xlink:href="#ArialMT-30" transform="translate(194.628906 0)"/>
      </g>
     </g>
    </g>
    <g id="ytick_18">
     <g id="line2d_51">
      <path d="M 906.05625 382.143293 
L 1276.995 382.143293 
" clip-path="url(#p747ff07503)" style="fill: none; stroke: #cccccc; stroke-width: 0.8; stroke-linecap: round"/>
     </g>
     <g id="line2d_52"/>
     <g id="text_28">
      <!-- 0.025 -->
      <g style="fill: #262626" transform="translate(877.534375 385.722199) scale(0.1 -0.1)">
       <use xlink:href="#ArialMT-30"/>
       <use xlink:href="#ArialMT-2e" transform="translate(55.615234 0)"/>
       <use xlink:href="#ArialMT-30" transform="translate(83.398438 0)"/>
       <use xlink:href="#ArialMT-32" transform="translate(139.013672 0)"/>
       <use xlink:href="#ArialMT-35" transform="translate(194.628906 0)"/>
      </g>
     </g>
    </g>
    <g id="ytick_19">
     <g id="line2d_53">
      <path d="M 906.05625 337.226586 
L 1276.995 337.226586 
" clip-path="url(#p747ff07503)" style="fill: none; stroke: #cccccc; stroke-width: 0.8; stroke-linecap: round"/>
     </g>
     <g id="line2d_54"/>
     <g id="text_29">
      <!-- 0.050 -->
      <g style="fill: #262626" transform="translate(877.534375 340.805493) scale(0.1 -0.1)">
       <use xlink:href="#ArialMT-30"/>
       <use xlink:href="#ArialMT-2e" transform="translate(55.615234 0)"/>
       <use xlink:href="#ArialMT-30" transform="translate(83.398438 0)"/>
       <use xlink:href="#ArialMT-35" transform="translate(139.013672 0)"/>
       <use xlink:href="#ArialMT-30" transform="translate(194.628906 0)"/>
      </g>
     </g>
    </g>
    <g id="ytick_20">
     <g id="line2d_55">
      <path d="M 906.05625 292.30988 
L 1276.995 292.30988 
" clip-path="url(#p747ff07503)" style="fill: none; stroke: #cccccc; stroke-width: 0.8; stroke-linecap: round"/>
     </g>
     <g id="line2d_56"/>
     <g id="text_30">
      <!-- 0.075 -->
      <g style="fill: #262626" transform="translate(877.534375 295.888786) scale(0.1 -0.1)">
       <use xlink:href="#ArialMT-30"/>
       <use xlink:href="#ArialMT-2e" transform="translate(55.615234 0)"/>
       <use xlink:href="#ArialMT-30" transform="translate(83.398438 0)"/>
       <use xlink:href="#ArialMT-37" transform="translate(139.013672 0)"/>
       <use xlink:href="#ArialMT-35" transform="translate(194.628906 0)"/>
      </g>
     </g>
    </g>
    <g id="ytick_21">
     <g id="line2d_57">
      <path d="M 906.05625 247.393173 
L 1276.995 247.393173 
" clip-path="url(#p747ff07503)" style="fill: none; stroke: #cccccc; stroke-width: 0.8; stroke-linecap: round"/>
     </g>
     <g id="line2d_58"/>
     <g id="text_31">
      <!-- 0.100 -->
      <g style="fill: #262626" transform="translate(877.534375 250.972079) scale(0.1 -0.1)">
       <use xlink:href="#ArialMT-30"/>
       <use xlink:href="#ArialMT-2e" transform="translate(55.615234 0)"/>
       <use xlink:href="#ArialMT-31" transform="translate(83.398438 0)"/>
       <use xlink:href="#ArialMT-30" transform="translate(139.013672 0)"/>
       <use xlink:href="#ArialMT-30" transform="translate(194.628906 0)"/>
      </g>
     </g>
    </g>
    <g id="ytick_22">
     <g id="line2d_59">
      <path d="M 906.05625 202.476466 
L 1276.995 202.476466 
" clip-path="url(#p747ff07503)" style="fill: none; stroke: #cccccc; stroke-width: 0.8; stroke-linecap: round"/>
     </g>
     <g id="line2d_60"/>
     <g id="text_32">
      <!-- 0.125 -->
      <g style="fill: #262626" transform="translate(877.534375 206.055372) scale(0.1 -0.1)">
       <use xlink:href="#ArialMT-30"/>
       <use xlink:href="#ArialMT-2e" transform="translate(55.615234 0)"/>
       <use xlink:href="#ArialMT-31" transform="translate(83.398438 0)"/>
       <use xlink:href="#ArialMT-32" transform="translate(139.013672 0)"/>
       <use xlink:href="#ArialMT-35" transform="translate(194.628906 0)"/>
      </g>
     </g>
    </g>
    <g id="ytick_23">
     <g id="line2d_61">
      <path d="M 906.05625 157.559759 
L 1276.995 157.559759 
" clip-path="url(#p747ff07503)" style="fill: none; stroke: #cccccc; stroke-width: 0.8; stroke-linecap: round"/>
     </g>
     <g id="line2d_62"/>
     <g id="text_33">
      <!-- 0.150 -->
      <g style="fill: #262626" transform="translate(877.534375 161.138666) scale(0.1 -0.1)">
       <use xlink:href="#ArialMT-30"/>
       <use xlink:href="#ArialMT-2e" transform="translate(55.615234 0)"/>
       <use xlink:href="#ArialMT-31" transform="translate(83.398438 0)"/>
       <use xlink:href="#ArialMT-35" transform="translate(139.013672 0)"/>
       <use xlink:href="#ArialMT-30" transform="translate(194.628906 0)"/>
      </g>
     </g>
    </g>
    <g id="ytick_24">
     <g id="line2d_63">
      <path d="M 906.05625 112.643053 
L 1276.995 112.643053 
" clip-path="url(#p747ff07503)" style="fill: none; stroke: #cccccc; stroke-width: 0.8; stroke-linecap: round"/>
     </g>
     <g id="line2d_64"/>
     <g id="text_34">
      <!-- 0.175 -->
      <g style="fill: #262626" transform="translate(877.534375 116.221959) scale(0.1 -0.1)">
       <use xlink:href="#ArialMT-30"/>
       <use xlink:href="#ArialMT-2e" transform="translate(55.615234 0)"/>
       <use xlink:href="#ArialMT-31" transform="translate(83.398438 0)"/>
       <use xlink:href="#ArialMT-37" transform="translate(139.013672 0)"/>
       <use xlink:href="#ArialMT-35" transform="translate(194.628906 0)"/>
      </g>
     </g>
    </g>
    <g id="text_35">
     <!-- Drop Rate -->
     <g style="fill: #262626" transform="translate(871.149375 287.794063) rotate(-90) scale(0.12 -0.12)">
      <use xlink:href="#ArialMT-44"/>
      <use xlink:href="#ArialMT-72" transform="translate(72.216797 0)"/>
      <use xlink:href="#ArialMT-6f" transform="translate(105.517578 0)"/>
      <use xlink:href="#ArialMT-70" transform="translate(161.132812 0)"/>
      <use xlink:href="#ArialMT-20" transform="translate(216.748047 0)"/>
      <use xlink:href="#ArialMT-52" transform="translate(244.53125 0)"/>
      <use xlink:href="#ArialMT-61" transform="translate(316.748047 0)"/>
      <use xlink:href="#ArialMT-74" transform="translate(372.363281 0)"/>
      <use xlink:href="#ArialMT-65" transform="translate(400.146484 0)"/>
     </g>
    </g>
   </g>
   <g id="patch_13">
    <path d="M 922.917102 427.06 
L 1072.791345 427.06 
L 1072.791345 173.102651 
L 922.917102 173.102651 
z
" clip-path="url(#p747ff07503)" style="fill: #e74c3c; opacity: 0.8"/>
   </g>
   <g id="patch_14">
    <path d="M 1110.259905 427.06 
L 1260.134148 427.06 
L 1260.134148 427.06 
L 1110.259905 427.06 
z
" clip-path="url(#p747ff07503)" style="fill: #27ae60; opacity: 0.8"/>
   </g>
   <g id="LineCollection_3">
    <path d="M 997.854223 236.497683 
L 997.854223 109.707619 
" clip-path="url(#p747ff07503)" style="fill: none; stroke: #000000; stroke-width: 1.5"/>
    <path d="M 1185.197027 427.06 
L 1185.197027 427.06 
" clip-path="url(#p747ff07503)" style="fill: none; stroke: #000000; stroke-width: 1.5"/>
   </g>
   <g id="line2d_65">
    <g clip-path="url(#p747ff07503)">
     <use xlink:href="#m1ab70912f0" x="997.854223" y="236.497683" style="fill: #e74c3c; stroke: #000000"/>
     <use xlink:href="#m1ab70912f0" x="1185.197027" y="427.06" style="fill: #e74c3c; stroke: #000000"/>
    </g>
   </g>
   <g id="line2d_66">
    <g clip-path="url(#p747ff07503)">
     <use xlink:href="#m1ab70912f0" x="997.854223" y="109.707619" style="fill: #e74c3c; stroke: #000000"/>
     <use xlink:href="#m1ab70912f0" x="1185.197027" y="427.06" style="fill: #e74c3c; stroke: #000000"/>
    </g>
   </g>
   <g id="patch_15">
    <path d="M 906.05625 427.06 
L 906.05625 93.84 
" style="fill: none; stroke: #cccccc; stroke-linejoin: miter; stroke-linecap: square"/>
   </g>
   <g id="patch_16">
    <path d="M 906.05625 427.06 
L 1276.995 427.06 
" style="fill: none; stroke: #cccccc; stroke-linejoin: miter; stroke-linecap: square"/>
   </g>
   <g id="text_36">
    <!-- Variation 3: PF4-C -->
    <g style="fill: #262626" transform="translate(1034.465781 87.84) scale(0.14 -0.14)">
     <defs>
      <path id="ArialMT-33" d="M 269 1209 
L 831 1284 
Q 928 806 1161 595 
Q 1394 384 1728 384 
Q 2125 384 2398 659 
Q 2672 934 2672 1341 
Q 2672 1728 2419 1979 
Q 2166 2231 1775 2231 
Q 1616 2231 1378 2169 
L 1441 2663 
Q 1497 2656 1531 2656 
Q 1891 2656 2178 2843 
Q 2466 3031 2466 3422 
Q 2466 3731 2256 3934 
Q 2047 4138 1716 4138 
Q 1388 4138 1169 3931 
Q 950 3725 888 3313 
L 325 3413 
Q 428 3978 793 4289 
Q 1159 4600 1703 4600 
Q 2078 4600 2393 4439 
Q 2709 4278 2876 4000 
Q 3044 3722 3044 3409 
Q 3044 3113 2884 2869 
Q 2725 2625 2413 2481 
Q 2819 2388 3044 2092 
Q 3269 1797 3269 1353 
Q 3269 753 2831 336 
Q 2394 -81 1725 -81 
Q 1122 -81 723 278 
Q 325 638 269 1209 
z
" transform="scale(0.015625)"/>
     </defs>
     <use xlink:href="#ArialMT-56"/>
     <use xlink:href="#ArialMT-61" transform="translate(59.324219 0)"/>
     <use xlink:href="#ArialMT-72" transform="translate(114.939453 0)"/>
     <use xlink:href="#ArialMT-69" transform="translate(148.240234 0)"/>
     <use xlink:href="#ArialMT-61" transform="translate(170.457031 0)"/>
     <use xlink:href="#ArialMT-74" transform="translate(226.072266 0)"/>
     <use xlink:href="#ArialMT-69" transform="translate(253.855469 0)"/>
     <use xlink:href="#ArialMT-6f" transform="translate(276.072266 0)"/>
     <use xlink:href="#ArialMT-6e" transform="translate(331.6875 0)"/>
     <use xlink:href="#ArialMT-20" transform="translate(387.302734 0)"/>
     <use xlink:href="#ArialMT-33" transform="translate(415.085938 0)"/>
     <use xlink:href="#ArialMT-3a" transform="translate(470.701172 0)"/>
     <use xlink:href="#ArialMT-20" transform="translate(498.484375 0)"/>
     <use xlink:href="#ArialMT-50" transform="translate(526.267578 0)"/>
     <use xlink:href="#ArialMT-46" transform="translate(592.966797 0)"/>
     <use xlink:href="#ArialMT-34" transform="translate(654.050781 0)"/>
     <use xlink:href="#ArialMT-2d" transform="translate(709.666016 0)"/>
     <use xlink:href="#ArialMT-43" transform="translate(742.966797 0)"/>
    </g>
   </g>
  </g>
  <g id="axes_4">
   <g id="patch_17">
    <path d="M 50.69625 802.18 
L 421.635 802.18 
L 421.635 468.96 
L 50.69625 468.96 
z
" style="fill: #ffffff"/>
   </g>
   <g id="matplotlib.axis_7">
    <g id="xtick_7">
     <g id="line2d_67">
      <path d="M 142.494223 802.18 
L 142.494223 468.96 
" clip-path="url(#p0972da57ab)" style="fill: none; stroke: #cccccc; stroke-width: 0.8; stroke-linecap: round"/>
     </g>
     <g id="line2d_68"/>
     <g id="text_37">
      <!-- Baseline -->
      <g style="fill: #262626" transform="translate(123.315317 812.837813) scale(0.1 -0.1)">
       <use xlink:href="#ArialMT-42"/>
       <use xlink:href="#ArialMT-61" transform="translate(66.699219 0)"/>
       <use xlink:href="#ArialMT-73" transform="translate(122.314453 0)"/>
       <use xlink:href="#ArialMT-65" transform="translate(172.314453 0)"/>
       <use xlink:href="#ArialMT-6c" transform="translate(227.929688 0)"/>
       <use xlink:href="#ArialMT-69" transform="translate(250.146484 0)"/>
       <use xlink:href="#ArialMT-6e" transform="translate(272.363281 0)"/>
       <use xlink:href="#ArialMT-65" transform="translate(327.978516 0)"/>
      </g>
     </g>
    </g>
    <g id="xtick_8">
     <g id="line2d_69">
      <path d="M 329.837027 802.18 
L 329.837027 468.96 
" clip-path="url(#p0972da57ab)" style="fill: none; stroke: #cccccc; stroke-width: 0.8; stroke-linecap: round"/>
     </g>
     <g id="line2d_70"/>
     <g id="text_38">
      <!-- PF4-D -->
      <g style="fill: #262626" transform="translate(315.391714 812.837813) scale(0.1 -0.1)">
       <use xlink:href="#ArialMT-50"/>
       <use xlink:href="#ArialMT-46" transform="translate(66.699219 0)"/>
       <use xlink:href="#ArialMT-34" transform="translate(127.783203 0)"/>
       <use xlink:href="#ArialMT-2d" transform="translate(183.398438 0)"/>
       <use xlink:href="#ArialMT-44" transform="translate(216.699219 0)"/>
      </g>
     </g>
    </g>
   </g>
   <g id="matplotlib.axis_8">
    <g id="ytick_25">
     <g id="line2d_71">
      <path d="M 50.69625 802.18 
L 421.635 802.18 
" clip-path="url(#p0972da57ab)" style="fill: none; stroke: #cccccc; stroke-width: 0.8; stroke-linecap: round"/>
     </g>
     <g id="line2d_72"/>
     <g id="text_39">
      <!-- 0.000 -->
      <g style="fill: #262626" transform="translate(22.174375 805.758906) scale(0.1 -0.1)">
       <use xlink:href="#ArialMT-30"/>
       <use xlink:href="#ArialMT-2e" transform="translate(55.615234 0)"/>
       <use xlink:href="#ArialMT-30" transform="translate(83.398438 0)"/>
       <use xlink:href="#ArialMT-30" transform="translate(139.013672 0)"/>
       <use xlink:href="#ArialMT-30" transform="translate(194.628906 0)"/>
      </g>
     </g>
    </g>
    <g id="ytick_26">
     <g id="line2d_73">
      <path d="M 50.69625 757.263293 
L 421.635 757.263293 
" clip-path="url(#p0972da57ab)" style="fill: none; stroke: #cccccc; stroke-width: 0.8; stroke-linecap: round"/>
     </g>
     <g id="line2d_74"/>
     <g id="text_40">
      <!-- 0.025 -->
      <g style="fill: #262626" transform="translate(22.174375 760.842199) scale(0.1 -0.1)">
       <use xlink:href="#ArialMT-30"/>
       <use xlink:href="#ArialMT-2e" transform="translate(55.615234 0)"/>
       <use xlink:href="#ArialMT-30" transform="translate(83.398438 0)"/>
       <use xlink:href="#ArialMT-32" transform="translate(139.013672 0)"/>
       <use xlink:href="#ArialMT-35" transform="translate(194.628906 0)"/>
      </g>
     </g>
    </g>
    <g id="ytick_27">
     <g id="line2d_75">
      <path d="M 50.69625 712.346586 
L 421.635 712.346586 
" clip-path="url(#p0972da57ab)" style="fill: none; stroke: #cccccc; stroke-width: 0.8; stroke-linecap: round"/>
     </g>
     <g id="line2d_76"/>
     <g id="text_41">
      <!-- 0.050 -->
      <g style="fill: #262626" transform="translate(22.174375 715.925493) scale(0.1 -0.1)">
       <use xlink:href="#ArialMT-30"/>
       <use xlink:href="#ArialMT-2e" transform="translate(55.615234 0)"/>
       <use xlink:href="#ArialMT-30" transform="translate(83.398438 0)"/>
       <use xlink:href="#ArialMT-35" transform="translate(139.013672 0)"/>
       <use xlink:href="#ArialMT-30" transform="translate(194.628906 0)"/>
      </g>
     </g>
    </g>
    <g id="ytick_28">
     <g id="line2d_77">
      <path d="M 50.69625 667.42988 
L 421.635 667.42988 
" clip-path="url(#p0972da57ab)" style="fill: none; stroke: #cccccc; stroke-width: 0.8; stroke-linecap: round"/>
     </g>
     <g id="line2d_78"/>
     <g id="text_42">
      <!-- 0.075 -->
      <g style="fill: #262626" transform="translate(22.174375 671.008786) scale(0.1 -0.1)">
       <use xlink:href="#ArialMT-30"/>
       <use xlink:href="#ArialMT-2e" transform="translate(55.615234 0)"/>
       <use xlink:href="#ArialMT-30" transform="translate(83.398438 0)"/>
       <use xlink:href="#ArialMT-37" transform="translate(139.013672 0)"/>
       <use xlink:href="#ArialMT-35" transform="translate(194.628906 0)"/>
      </g>
     </g>
    </g>
    <g id="ytick_29">
     <g id="line2d_79">
      <path d="M 50.69625 622.513173 
L 421.635 622.513173 
" clip-path="url(#p0972da57ab)" style="fill: none; stroke: #cccccc; stroke-width: 0.8; stroke-linecap: round"/>
     </g>
     <g id="line2d_80"/>
     <g id="text_43">
      <!-- 0.100 -->
      <g style="fill: #262626" transform="translate(22.174375 626.092079) scale(0.1 -0.1)">
       <use xlink:href="#ArialMT-30"/>
       <use xlink:href="#ArialMT-2e" transform="translate(55.615234 0)"/>
       <use xlink:href="#ArialMT-31" transform="translate(83.398438 0)"/>
       <use xlink:href="#ArialMT-30" transform="translate(139.013672 0)"/>
       <use xlink:href="#ArialMT-30" transform="translate(194.628906 0)"/>
      </g>
     </g>
    </g>
    <g id="ytick_30">
     <g id="line2d_81">
      <path d="M 50.69625 577.596466 
L 421.635 577.596466 
" clip-path="url(#p0972da57ab)" style="fill: none; stroke: #cccccc; stroke-width: 0.8; stroke-linecap: round"/>
     </g>
     <g id="line2d_82"/>
     <g id="text_44">
      <!-- 0.125 -->
      <g style="fill: #262626" transform="translate(22.174375 581.175372) scale(0.1 -0.1)">
       <use xlink:href="#ArialMT-30"/>
       <use xlink:href="#ArialMT-2e" transform="translate(55.615234 0)"/>
       <use xlink:href="#ArialMT-31" transform="translate(83.398438 0)"/>
       <use xlink:href="#ArialMT-32" transform="translate(139.013672 0)"/>
       <use xlink:href="#ArialMT-35" transform="translate(194.628906 0)"/>
      </g>
     </g>
    </g>
    <g id="ytick_31">
     <g id="line2d_83">
      <path d="M 50.69625 532.679759 
L 421.635 532.679759 
" clip-path="url(#p0972da57ab)" style="fill: none; stroke: #cccccc; stroke-width: 0.8; stroke-linecap: round"/>
     </g>
     <g id="line2d_84"/>
     <g id="text_45">
      <!-- 0.150 -->
      <g style="fill: #262626" transform="translate(22.174375 536.258666) scale(0.1 -0.1)">
       <use xlink:href="#ArialMT-30"/>
       <use xlink:href="#ArialMT-2e" transform="translate(55.615234 0)"/>
       <use xlink:href="#ArialMT-31" transform="translate(83.398438 0)"/>
       <use xlink:href="#ArialMT-35" transform="translate(139.013672 0)"/>
       <use xlink:href="#ArialMT-30" transform="translate(194.628906 0)"/>
      </g>
     </g>
    </g>
    <g id="ytick_32">
     <g id="line2d_85">
      <path d="M 50.69625 487.763053 
L 421.635 487.763053 
" clip-path="url(#p0972da57ab)" style="fill: none; stroke: #cccccc; stroke-width: 0.8; stroke-linecap: round"/>
     </g>
     <g id="line2d_86"/>
     <g id="text_46">
      <!-- 0.175 -->
      <g style="fill: #262626" transform="translate(22.174375 491.341959) scale(0.1 -0.1)">
       <use xlink:href="#ArialMT-30"/>
       <use xlink:href="#ArialMT-2e" transform="translate(55.615234 0)"/>
       <use xlink:href="#ArialMT-31" transform="translate(83.398438 0)"/>
       <use xlink:href="#ArialMT-37" transform="translate(139.013672 0)"/>
       <use xlink:href="#ArialMT-35" transform="translate(194.628906 0)"/>
      </g>
     </g>
    </g>
    <g id="text_47">
     <!-- Drop Rate -->
     <g style="fill: #262626" transform="translate(15.789375 662.914063) rotate(-90) scale(0.12 -0.12)">
      <use xlink:href="#ArialMT-44"/>
      <use xlink:href="#ArialMT-72" transform="translate(72.216797 0)"/>
      <use xlink:href="#ArialMT-6f" transform="translate(105.517578 0)"/>
      <use xlink:href="#ArialMT-70" transform="translate(161.132812 0)"/>
      <use xlink:href="#ArialMT-20" transform="translate(216.748047 0)"/>
      <use xlink:href="#ArialMT-52" transform="translate(244.53125 0)"/>
      <use xlink:href="#ArialMT-61" transform="translate(316.748047 0)"/>
      <use xlink:href="#ArialMT-74" transform="translate(372.363281 0)"/>
      <use xlink:href="#ArialMT-65" transform="translate(400.146484 0)"/>
     </g>
    </g>
   </g>
   <g id="patch_18">
    <path d="M 67.557102 802.18 
L 217.431345 802.18 
L 217.431345 548.222651 
L 67.557102 548.222651 
z
" clip-path="url(#p0972da57ab)" style="fill: #e74c3c; opacity: 0.8"/>
   </g>
   <g id="patch_19">
    <path d="M 254.899905 802.18 
L 404.774148 802.18 
L 404.774148 802.18 
L 254.899905 802.18 
z
" clip-path="url(#p0972da57ab)" style="fill: #27ae60; opacity: 0.8"/>
   </g>
   <g id="LineCollection_4">
    <path d="M 142.494223 611.617683 
L 142.494223 484.827619 
" clip-path="url(#p0972da57ab)" style="fill: none; stroke: #000000; stroke-width: 1.5"/>
    <path d="M 329.837027 802.18 
L 329.837027 802.18 
" clip-path="url(#p0972da57ab)" style="fill: none; stroke: #000000; stroke-width: 1.5"/>
   </g>
   <g id="line2d_87">
    <g clip-path="url(#p0972da57ab)">
     <use xlink:href="#m1ab70912f0" x="142.494223" y="611.617683" style="fill: #e74c3c; stroke: #000000"/>
     <use xlink:href="#m1ab70912f0" x="329.837027" y="802.18" style="fill: #e74c3c; stroke: #000000"/>
    </g>
   </g>
   <g id="line2d_88">
    <g clip-path="url(#p0972da57ab)">
     <use xlink:href="#m1ab70912f0" x="142.494223" y="484.827619" style="fill: #e74c3c; stroke: #000000"/>
     <use xlink:href="#m1ab70912f0" x="329.837027" y="802.18" style="fill: #e74c3c; stroke: #000000"/>
    </g>
   </g>
   <g id="patch_20">
    <path d="M 50.69625 802.18 
L 50.69625 468.96 
" style="fill: none; stroke: #cccccc; stroke-linejoin: miter; stroke-linecap: square"/>
   </g>
   <g id="patch_21">
    <path d="M 50.69625 802.18 
L 421.635 802.18 
" style="fill: none; stroke: #cccccc; stroke-linejoin: miter; stroke-linecap: square"/>
   </g>
   <g id="text_48">
    <!-- Variation 4: PF4-D -->
    <g style="fill: #262626" transform="translate(179.105781 462.96) scale(0.14 -0.14)">
     <use xlink:href="#ArialMT-56"/>
     <use xlink:href="#ArialMT-61" transform="translate(59.324219 0)"/>
     <use xlink:href="#ArialMT-72" transform="translate(114.939453 0)"/>
     <use xlink:href="#ArialMT-69" transform="translate(148.240234 0)"/>
     <use xlink:href="#ArialMT-61" transform="translate(170.457031 0)"/>
     <use xlink:href="#ArialMT-74" transform="translate(226.072266 0)"/>
     <use xlink:href="#ArialMT-69" transform="translate(253.855469 0)"/>
     <use xlink:href="#ArialMT-6f" transform="translate(276.072266 0)"/>
     <use xlink:href="#ArialMT-6e" transform="translate(331.6875 0)"/>
     <use xlink:href="#ArialMT-20" transform="translate(387.302734 0)"/>
     <use xlink:href="#ArialMT-34" transform="translate(415.085938 0)"/>
     <use xlink:href="#ArialMT-3a" transform="translate(470.701172 0)"/>
     <use xlink:href="#ArialMT-20" transform="translate(498.484375 0)"/>
     <use xlink:href="#ArialMT-50" transform="translate(526.267578 0)"/>
     <use xlink:href="#ArialMT-46" transform="translate(592.966797 0)"/>
     <use xlink:href="#ArialMT-34" transform="translate(654.050781 0)"/>
     <use xlink:href="#ArialMT-2d" transform="translate(709.666016 0)"/>
     <use xlink:href="#ArialMT-44" transform="translate(742.966797 0)"/>
    </g>
   </g>
  </g>
  <g id="axes_5">
   <g id="patch_22">
    <path d="M 478.37625 802.18 
L 849.315 802.18 
L 849.315 468.96 
L 478.37625 468.96 
z
" style="fill: #ffffff"/>
   </g>
   <g id="matplotlib.axis_9">
    <g id="xtick_9">
     <g id="line2d_89">
      <path d="M 570.174223 802.18 
L 570.174223 468.96 
" clip-path="url(#p41cf44c33c)" style="fill: none; stroke: #cccccc; stroke-width: 0.8; stroke-linecap: round"/>
     </g>
     <g id="line2d_90"/>
     <g id="text_49">
      <!-- Baseline -->
      <g style="fill: #262626" transform="translate(550.995317 812.837813) scale(0.1 -0.1)">
       <use xlink:href="#ArialMT-42"/>
       <use xlink:href="#ArialMT-61" transform="translate(66.699219 0)"/>
       <use xlink:href="#ArialMT-73" transform="translate(122.314453 0)"/>
       <use xlink:href="#ArialMT-65" transform="translate(172.314453 0)"/>
       <use xlink:href="#ArialMT-6c" transform="translate(227.929688 0)"/>
       <use xlink:href="#ArialMT-69" transform="translate(250.146484 0)"/>
       <use xlink:href="#ArialMT-6e" transform="translate(272.363281 0)"/>
       <use xlink:href="#ArialMT-65" transform="translate(327.978516 0)"/>
      </g>
     </g>
    </g>
    <g id="xtick_10">
     <g id="line2d_91">
      <path d="M 757.517027 802.18 
L 757.517027 468.96 
" clip-path="url(#p41cf44c33c)" style="fill: none; stroke: #cccccc; stroke-width: 0.8; stroke-linecap: round"/>
     </g>
     <g id="line2d_92"/>
     <g id="text_50">
      <!-- PF4-E -->
      <g style="fill: #262626" transform="translate(743.347495 812.837813) scale(0.1 -0.1)">
       <defs>
        <path id="ArialMT-45" d="M 506 0 
L 506 4581 
L 3819 4581 
L 3819 4041 
L 1113 4041 
L 1113 2638 
L 3647 2638 
L 3647 2100 
L 1113 2100 
L 1113 541 
L 3925 541 
L 3925 0 
L 506 0 
z
" transform="scale(0.015625)"/>
       </defs>
       <use xlink:href="#ArialMT-50"/>
       <use xlink:href="#ArialMT-46" transform="translate(66.699219 0)"/>
       <use xlink:href="#ArialMT-34" transform="translate(127.783203 0)"/>
       <use xlink:href="#ArialMT-2d" transform="translate(183.398438 0)"/>
       <use xlink:href="#ArialMT-45" transform="translate(216.699219 0)"/>
      </g>
     </g>
    </g>
   </g>
   <g id="matplotlib.axis_10">
    <g id="ytick_33">
     <g id="line2d_93">
      <path d="M 478.37625 802.18 
L 849.315 802.18 
" clip-path="url(#p41cf44c33c)" style="fill: none; stroke: #cccccc; stroke-width: 0.8; stroke-linecap: round"/>
     </g>
     <g id="line2d_94"/>
     <g id="text_51">
      <!-- 0.000 -->
      <g style="fill: #262626" transform="translate(449.854375 805.758906) scale(0.1 -0.1)">
       <use xlink:href="#ArialMT-30"/>
       <use xlink:href="#ArialMT-2e" transform="translate(55.615234 0)"/>
       <use xlink:href="#ArialMT-30" transform="translate(83.398438 0)"/>
       <use xlink:href="#ArialMT-30" transform="translate(139.013672 0)"/>
       <use xlink:href="#ArialMT-30" transform="translate(194.628906 0)"/>
      </g>
     </g>
    </g>
    <g id="ytick_34">
     <g id="line2d_95">
      <path d="M 478.37625 757.263293 
L 849.315 757.263293 
" clip-path="url(#p41cf44c33c)" style="fill: none; stroke: #cccccc; stroke-width: 0.8; stroke-linecap: round"/>
     </g>
     <g id="line2d_96"/>
     <g id="text_52">
      <!-- 0.025 -->
      <g style="fill: #262626" transform="translate(449.854375 760.842199) scale(0.1 -0.1)">
       <use xlink:href="#ArialMT-30"/>
       <use xlink:href="#ArialMT-2e" transform="translate(55.615234 0)"/>
       <use xlink:href="#ArialMT-30" transform="translate(83.398438 0)"/>
       <use xlink:href="#ArialMT-32" transform="translate(139.013672 0)"/>
       <use xlink:href="#ArialMT-35" transform="translate(194.628906 0)"/>
      </g>
     </g>
    </g>
    <g id="ytick_35">
     <g id="line2d_97">
      <path d="M 478.37625 712.346586 
L 849.315 712.346586 
" clip-path="url(#p41cf44c33c)" style="fill: none; stroke: #cccccc; stroke-width: 0.8; stroke-linecap: round"/>
     </g>
     <g id="line2d_98"/>
     <g id="text_53">
      <!-- 0.050 -->
      <g style="fill: #262626" transform="translate(449.854375 715.925493) scale(0.1 -0.1)">
       <use xlink:href="#ArialMT-30"/>
       <use xlink:href="#ArialMT-2e" transform="translate(55.615234 0)"/>
       <use xlink:href="#ArialMT-30" transform="translate(83.398438 0)"/>
       <use xlink:href="#ArialMT-35" transform="translate(139.013672 0)"/>
       <use xlink:href="#ArialMT-30" transform="translate(194.628906 0)"/>
      </g>
     </g>
    </g>
    <g id="ytick_36">
     <g id="line2d_99">
      <path d="M 478.37625 667.42988 
L 849.315 667.42988 
" clip-path="url(#p41cf44c33c)" style="fill: none; stroke: #cccccc; stroke-width: 0.8; stroke-linecap: round"/>
     </g>
     <g id="line2d_100"/>
     <g id="text_54">
      <!-- 0.075 -->
      <g style="fill: #262626" transform="translate(449.854375 671.008786) scale(0.1 -0.1)">
       <use xlink:href="#ArialMT-30"/>
       <use xlink:href="#ArialMT-2e" transform="translate(55.615234 0)"/>
       <use xlink:href="#ArialMT-30" transform="translate(83.398438 0)"/>
       <use xlink:href="#ArialMT-37" transform="translate(139.013672 0)"/>
       <use xlink:href="#ArialMT-35" transform="translate(194.628906 0)"/>
      </g>
     </g>
    </g>
    <g id="ytick_37">
     <g id="line2d_101">
      <path d="M 478.37625 622.513173 
L 849.315 622.513173 
" clip-path="url(#p41cf44c33c)" style="fill: none; stroke: #cccccc; stroke-width: 0.8; stroke-linecap: round"/>
     </g>
     <g id="line2d_102"/>
     <g id="text_55">
      <!-- 0.100 -->
      <g style="fill: #262626" transform="translate(449.854375 626.092079) scale(0.1 -0.1)">
       <use xlink:href="#ArialMT-30"/>
       <use xlink:href="#ArialMT-2e" transform="translate(55.615234 0)"/>
       <use xlink:href="#ArialMT-31" transform="translate(83.398438 0)"/>
       <use xlink:href="#ArialMT-30" transform="translate(139.013672 0)"/>
       <use xlink:href="#ArialMT-30" transform="translate(194.628906 0)"/>
      </g>
     </g>
    </g>
    <g id="ytick_38">
     <g id="line2d_103">
      <path d="M 478.37625 577.596466 
L 849.315 577.596466 
" clip-path="url(#p41cf44c33c)" style="fill: none; stroke: #cccccc; stroke-width: 0.8; stroke-linecap: round"/>
     </g>
     <g id="line2d_104"/>
     <g id="text_56">
      <!-- 0.125 -->
      <g style="fill: #262626" transform="translate(449.854375 581.175372) scale(0.1 -0.1)">
       <use xlink:href="#ArialMT-30"/>
       <use xlink:href="#ArialMT-2e" transform="translate(55.615234 0)"/>
       <use xlink:href="#ArialMT-31" transform="translate(83.398438 0)"/>
       <use xlink:href="#ArialMT-32" transform="translate(139.013672 0)"/>
       <use xlink:href="#ArialMT-35" transform="translate(194.628906 0)"/>
      </g>
     </g>
    </g>
    <g id="ytick_39">
     <g id="line2d_105">
      <path d="M 478.37625 532.679759 
L 849.315 532.679759 
" clip-path="url(#p41cf44c33c)" style="fill: none; stroke: #cccccc; stroke-width: 0.8; stroke-linecap: round"/>
     </g>
     <g id="line2d_106"/>
     <g id="text_57">
      <!-- 0.150 -->
      <g style="fill: #262626" transform="translate(449.854375 536.258666) scale(0.1 -0.1)">
       <use xlink:href="#ArialMT-30"/>
       <use xlink:href="#ArialMT-2e" transform="translate(55.615234 0)"/>
       <use xlink:href="#ArialMT-31" transform="translate(83.398438 0)"/>
       <use xlink:href="#ArialMT-35" transform="translate(139.013672 0)"/>
       <use xlink:href="#ArialMT-30" transform="translate(194.628906 0)"/>
      </g>
     </g>
    </g>
    <g id="ytick_40">
     <g id="line2d_107">
      <path d="M 478.37625 487.763053 
L 849.315 487.763053 
" clip-path="url(#p41cf44c33c)" style="fill: none; stroke: #cccccc; stroke-width: 0.8; stroke-linecap: round"/>
     </g>
     <g id="line2d_108"/>
     <g id="text_58">
      <!-- 0.175 -->
      <g style="fill: #262626" transform="translate(449.854375 491.341959) scale(0.1 -0.1)">
       <use xlink:href="#ArialMT-30"/>
       <use xlink:href="#ArialMT-2e" transform="translate(55.615234 0)"/>
       <use xlink:href="#ArialMT-31" transform="translate(83.398438 0)"/>
       <use xlink:href="#ArialMT-37" transform="translate(139.013672 0)"/>
       <use xlink:href="#ArialMT-35" transform="translate(194.628906 0)"/>
      </g>
     </g>
    </g>
    <g id="text_59">
     <!-- Drop Rate -->
     <g style="fill: #262626" transform="translate(443.469375 662.914063) rotate(-90) scale(0.12 -0.12)">
      <use xlink:href="#ArialMT-44"/>
      <use xlink:href="#ArialMT-72" transform="translate(72.216797 0)"/>
      <use xlink:href="#ArialMT-6f" transform="translate(105.517578 0)"/>
      <use xlink:href="#ArialMT-70" transform="translate(161.132812 0)"/>
      <use xlink:href="#ArialMT-20" transform="translate(216.748047 0)"/>
      <use xlink:href="#ArialMT-52" transform="translate(244.53125 0)"/>
      <use xlink:href="#ArialMT-61" transform="translate(316.748047 0)"/>
      <use xlink:href="#ArialMT-74" transform="translate(372.363281 0)"/>
      <use xlink:href="#ArialMT-65" transform="translate(400.146484 0)"/>
     </g>
    </g>
   </g>
   <g id="patch_23">
    <path d="M 495.237102 802.18 
L 645.111345 802.18 
L 645.111345 548.222651 
L 495.237102 548.222651 
z
" clip-path="url(#p41cf44c33c)" style="fill: #e74c3c; opacity: 0.8"/>
   </g>
   <g id="patch_24">
    <path d="M 682.579905 802.18 
L 832.454148 802.18 
L 832.454148 802.18 
L 682.579905 802.18 
z
" clip-path="url(#p41cf44c33c)" style="fill: #27ae60; opacity: 0.8"/>
   </g>
   <g id="LineCollection_5">
    <path d="M 570.174223 611.617683 
L 570.174223 484.827619 
" clip-path="url(#p41cf44c33c)" style="fill: none; stroke: #000000; stroke-width: 1.5"/>
    <path d="M 757.517027 802.18 
L 757.517027 802.18 
" clip-path="url(#p41cf44c33c)" style="fill: none; stroke: #000000; stroke-width: 1.5"/>
   </g>
   <g id="line2d_109">
    <g clip-path="url(#p41cf44c33c)">
     <use xlink:href="#m1ab70912f0" x="570.174223" y="611.617683" style="fill: #e74c3c; stroke: #000000"/>
     <use xlink:href="#m1ab70912f0" x="757.517027" y="802.18" style="fill: #e74c3c; stroke: #000000"/>
    </g>
   </g>
   <g id="line2d_110">
    <g clip-path="url(#p41cf44c33c)">
     <use xlink:href="#m1ab70912f0" x="570.174223" y="484.827619" style="fill: #e74c3c; stroke: #000000"/>
     <use xlink:href="#m1ab70912f0" x="757.517027" y="802.18" style="fill: #e74c3c; stroke: #000000"/>
    </g>
   </g>
   <g id="patch_25">
    <path d="M 478.37625 802.18 
L 478.37625 468.96 
" style="fill: none; stroke: #cccccc; stroke-linejoin: miter; stroke-linecap: square"/>
   </g>
   <g id="patch_26">
    <path d="M 478.37625 802.18 
L 849.315 802.18 
" style="fill: none; stroke: #cccccc; stroke-linejoin: miter; stroke-linecap: square"/>
   </g>
   <g id="text_60">
    <!-- Variation 5: PF4-E -->
    <g style="fill: #262626" transform="translate(607.171875 462.96) scale(0.14 -0.14)">
     <use xlink:href="#ArialMT-56"/>
     <use xlink:href="#ArialMT-61" transform="translate(59.324219 0)"/>
     <use xlink:href="#ArialMT-72" transform="translate(114.939453 0)"/>
     <use xlink:href="#ArialMT-69" transform="translate(148.240234 0)"/>
     <use xlink:href="#ArialMT-61" transform="translate(170.457031 0)"/>
     <use xlink:href="#ArialMT-74" transform="translate(226.072266 0)"/>
     <use xlink:href="#ArialMT-69" transform="translate(253.855469 0)"/>
     <use xlink:href="#ArialMT-6f" transform="translate(276.072266 0)"/>
     <use xlink:href="#ArialMT-6e" transform="translate(331.6875 0)"/>
     <use xlink:href="#ArialMT-20" transform="translate(387.302734 0)"/>
     <use xlink:href="#ArialMT-35" transform="translate(415.085938 0)"/>
     <use xlink:href="#ArialMT-3a" transform="translate(470.701172 0)"/>
     <use xlink:href="#ArialMT-20" transform="translate(498.484375 0)"/>
     <use xlink:href="#ArialMT-50" transform="translate(526.267578 0)"/>
     <use xlink:href="#ArialMT-46" transform="translate(592.966797 0)"/>
     <use xlink:href="#ArialMT-34" transform="translate(654.050781 0)"/>
     <use xlink:href="#ArialMT-2d" transform="translate(709.666016 0)"/>
     <use xlink:href="#ArialMT-45" transform="translate(742.966797 0)"/>
    </g>
   </g>
  </g>
  <g id="axes_6"/>
  <g id="text_61">
   <!-- Patent Family 4: Incast Backpressure Variations -->
   <g style="fill: #262626" transform="translate(414.0925 21.575) scale(0.2 -0.2)">
    <defs>
     <path id="Arial-BoldMT-50" d="M 466 0 
L 466 4581 
L 1950 4581 
Q 2794 4581 3050 4513 
Q 3444 4409 3709 4064 
Q 3975 3719 3975 3172 
Q 3975 2750 3822 2462 
Q 3669 2175 3433 2011 
Q 3197 1847 2953 1794 
Q 2622 1728 1994 1728 
L 1391 1728 
L 1391 0 
L 466 0 
z
M 1391 3806 
L 1391 2506 
L 1897 2506 
Q 2444 2506 2628 2578 
Q 2813 2650 2917 2803 
Q 3022 2956 3022 3159 
Q 3022 3409 2875 3571 
Q 2728 3734 2503 3775 
Q 2338 3806 1838 3806 
L 1391 3806 
z
" transform="scale(0.015625)"/>
     <path id="Arial-BoldMT-61" d="M 1116 2306 
L 319 2450 
Q 453 2931 781 3162 
Q 1109 3394 1756 3394 
Q 2344 3394 2631 3255 
Q 2919 3116 3036 2902 
Q 3153 2688 3153 2116 
L 3144 1091 
Q 3144 653 3186 445 
Q 3228 238 3344 0 
L 2475 0 
Q 2441 88 2391 259 
Q 2369 338 2359 363 
Q 2134 144 1878 34 
Q 1622 -75 1331 -75 
Q 819 -75 523 203 
Q 228 481 228 906 
Q 228 1188 362 1408 
Q 497 1628 739 1745 
Q 981 1863 1438 1950 
Q 2053 2066 2291 2166 
L 2291 2253 
Q 2291 2506 2166 2614 
Q 2041 2722 1694 2722 
Q 1459 2722 1328 2630 
Q 1197 2538 1116 2306 
z
M 2291 1594 
Q 2122 1538 1756 1459 
Q 1391 1381 1278 1306 
Q 1106 1184 1106 997 
Q 1106 813 1243 678 
Q 1381 544 1594 544 
Q 1831 544 2047 700 
Q 2206 819 2256 991 
Q 2291 1103 2291 1419 
L 2291 1594 
z
" transform="scale(0.015625)"/>
     <path id="Arial-BoldMT-74" d="M 1981 3319 
L 1981 2619 
L 1381 2619 
L 1381 1281 
Q 1381 875 1398 808 
Q 1416 741 1477 697 
Q 1538 653 1625 653 
Q 1747 653 1978 738 
L 2053 56 
Q 1747 -75 1359 -75 
Q 1122 -75 931 4 
Q 741 84 652 211 
Q 563 338 528 553 
Q 500 706 500 1172 
L 500 2619 
L 97 2619 
L 97 3319 
L 500 3319 
L 500 3978 
L 1381 4491 
L 1381 3319 
L 1981 3319 
z
" transform="scale(0.015625)"/>
     <path id="Arial-BoldMT-65" d="M 2381 1056 
L 3256 909 
Q 3088 428 2723 176 
Q 2359 -75 1813 -75 
Q 947 -75 531 491 
Q 203 944 203 1634 
Q 203 2459 634 2926 
Q 1066 3394 1725 3394 
Q 2466 3394 2894 2905 
Q 3322 2416 3303 1406 
L 1103 1406 
Q 1113 1016 1316 798 
Q 1519 581 1822 581 
Q 2028 581 2168 693 
Q 2309 806 2381 1056 
z
M 2431 1944 
Q 2422 2325 2234 2523 
Q 2047 2722 1778 2722 
Q 1491 2722 1303 2513 
Q 1116 2303 1119 1944 
L 2431 1944 
z
" transform="scale(0.015625)"/>
     <path id="Arial-BoldMT-6e" d="M 3478 0 
L 2600 0 
L 2600 1694 
Q 2600 2231 2544 2389 
Q 2488 2547 2361 2634 
Q 2234 2722 2056 2722 
Q 1828 2722 1647 2597 
Q 1466 2472 1398 2265 
Q 1331 2059 1331 1503 
L 1331 0 
L 453 0 
L 453 3319 
L 1269 3319 
L 1269 2831 
Q 1703 3394 2363 3394 
Q 2653 3394 2893 3289 
Q 3134 3184 3257 3021 
Q 3381 2859 3429 2653 
Q 3478 2447 3478 2063 
L 3478 0 
z
" transform="scale(0.015625)"/>
     <path id="Arial-BoldMT-20" transform="scale(0.015625)"/>
     <path id="Arial-BoldMT-46" d="M 472 0 
L 472 4581 
L 3613 4581 
L 3613 3806 
L 1397 3806 
L 1397 2722 
L 3309 2722 
L 3309 1947 
L 1397 1947 
L 1397 0 
L 472 0 
z
" transform="scale(0.015625)"/>
     <path id="Arial-BoldMT-6d" d="M 394 3319 
L 1203 3319 
L 1203 2866 
Q 1638 3394 2238 3394 
Q 2556 3394 2790 3262 
Q 3025 3131 3175 2866 
Q 3394 3131 3647 3262 
Q 3900 3394 4188 3394 
Q 4553 3394 4806 3245 
Q 5059 3097 5184 2809 
Q 5275 2597 5275 2122 
L 5275 0 
L 4397 0 
L 4397 1897 
Q 4397 2391 4306 2534 
Q 4184 2722 3931 2722 
Q 3747 2722 3584 2609 
Q 3422 2497 3350 2280 
Q 3278 2063 3278 1594 
L 3278 0 
L 2400 0 
L 2400 1819 
Q 2400 2303 2353 2443 
Q 2306 2584 2207 2653 
Q 2109 2722 1941 2722 
Q 1738 2722 1575 2612 
Q 1413 2503 1342 2297 
Q 1272 2091 1272 1613 
L 1272 0 
L 394 0 
L 394 3319 
z
" transform="scale(0.015625)"/>
     <path id="Arial-BoldMT-69" d="M 459 3769 
L 459 4581 
L 1338 4581 
L 1338 3769 
L 459 3769 
z
M 459 0 
L 459 3319 
L 1338 3319 
L 1338 0 
L 459 0 
z
" transform="scale(0.015625)"/>
     <path id="Arial-BoldMT-6c" d="M 459 0 
L 459 4581 
L 1338 4581 
L 1338 0 
L 459 0 
z
" transform="scale(0.015625)"/>
     <path id="Arial-BoldMT-79" d="M 44 3319 
L 978 3319 
L 1772 963 
L 2547 3319 
L 3456 3319 
L 2284 125 
L 2075 -453 
Q 1959 -744 1854 -897 
Q 1750 -1050 1614 -1145 
Q 1478 -1241 1279 -1294 
Q 1081 -1347 831 -1347 
Q 578 -1347 334 -1294 
L 256 -606 
Q 463 -647 628 -647 
Q 934 -647 1081 -467 
Q 1228 -288 1306 -9 
L 44 3319 
z
" transform="scale(0.015625)"/>
     <path id="Arial-BoldMT-34" d="M 1994 0 
L 1994 922 
L 119 922 
L 119 1691 
L 2106 4600 
L 2844 4600 
L 2844 1694 
L 3413 1694 
L 3413 922 
L 2844 922 
L 2844 0 
L 1994 0 
z
M 1994 1694 
L 1994 3259 
L 941 1694 
L 1994 1694 
z
" transform="scale(0.015625)"/>
     <path id="Arial-BoldMT-3a" d="M 628 2441 
L 628 3319 
L 1506 3319 
L 1506 2441 
L 628 2441 
z
M 628 0 
L 628 878 
L 1506 878 
L 1506 0 
L 628 0 
z
" transform="scale(0.015625)"/>
     <path id="Arial-BoldMT-49" d="M 438 0 
L 438 4581 
L 1363 4581 
L 1363 0 
L 438 0 
z
" transform="scale(0.015625)"/>
     <path id="Arial-BoldMT-63" d="M 3353 2338 
L 2488 2181 
Q 2444 2441 2289 2572 
Q 2134 2703 1888 2703 
Q 1559 2703 1364 2476 
Q 1169 2250 1169 1719 
Q 1169 1128 1367 884 
Q 1566 641 1900 641 
Q 2150 641 2309 783 
Q 2469 925 2534 1272 
L 3397 1125 
Q 3263 531 2881 228 
Q 2500 -75 1859 -75 
Q 1131 -75 698 384 
Q 266 844 266 1656 
Q 266 2478 700 2936 
Q 1134 3394 1875 3394 
Q 2481 3394 2839 3133 
Q 3197 2872 3353 2338 
z
" transform="scale(0.015625)"/>
     <path id="Arial-BoldMT-73" d="M 150 947 
L 1031 1081 
Q 1088 825 1259 692 
Q 1431 559 1741 559 
Q 2081 559 2253 684 
Q 2369 772 2369 919 
Q 2369 1019 2306 1084 
Q 2241 1147 2013 1200 
Q 950 1434 666 1628 
Q 272 1897 272 2375 
Q 272 2806 612 3100 
Q 953 3394 1669 3394 
Q 2350 3394 2681 3172 
Q 3013 2950 3138 2516 
L 2309 2363 
Q 2256 2556 2107 2659 
Q 1959 2763 1684 2763 
Q 1338 2763 1188 2666 
Q 1088 2597 1088 2488 
Q 1088 2394 1175 2328 
Q 1294 2241 1995 2081 
Q 2697 1922 2975 1691 
Q 3250 1456 3250 1038 
Q 3250 581 2869 253 
Q 2488 -75 1741 -75 
Q 1063 -75 667 200 
Q 272 475 150 947 
z
" transform="scale(0.015625)"/>
     <path id="Arial-BoldMT-42" d="M 469 4581 
L 2300 4581 
Q 2844 4581 3111 4536 
Q 3378 4491 3589 4347 
Q 3800 4203 3940 3964 
Q 4081 3725 4081 3428 
Q 4081 3106 3907 2837 
Q 3734 2569 3438 2434 
Q 3856 2313 4081 2019 
Q 4306 1725 4306 1328 
Q 4306 1016 4161 720 
Q 4016 425 3764 248 
Q 3513 72 3144 31 
Q 2913 6 2028 0 
L 469 0 
L 469 4581 
z
M 1394 3819 
L 1394 2759 
L 2000 2759 
Q 2541 2759 2672 2775 
Q 2909 2803 3045 2939 
Q 3181 3075 3181 3297 
Q 3181 3509 3064 3642 
Q 2947 3775 2716 3803 
Q 2578 3819 1925 3819 
L 1394 3819 
z
M 1394 1997 
L 1394 772 
L 2250 772 
Q 2750 772 2884 800 
Q 3091 838 3220 983 
Q 3350 1128 3350 1372 
Q 3350 1578 3250 1722 
Q 3150 1866 2961 1931 
Q 2772 1997 2141 1997 
L 1394 1997 
z
" transform="scale(0.015625)"/>
     <path id="Arial-BoldMT-6b" d="M 428 0 
L 428 4581 
L 1306 4581 
L 1306 2150 
L 2334 3319 
L 3416 3319 
L 2281 2106 
L 3497 0 
L 2550 0 
L 1716 1491 
L 1306 1063 
L 1306 0 
L 428 0 
z
" transform="scale(0.015625)"/>
     <path id="Arial-BoldMT-70" d="M 434 3319 
L 1253 3319 
L 1253 2831 
Q 1413 3081 1684 3237 
Q 1956 3394 2288 3394 
Q 2866 3394 3269 2941 
Q 3672 2488 3672 1678 
Q 3672 847 3265 386 
Q 2859 -75 2281 -75 
Q 2006 -75 1782 34 
Q 1559 144 1313 409 
L 1313 -1263 
L 434 -1263 
L 434 3319 
z
M 1303 1716 
Q 1303 1156 1525 889 
Q 1747 622 2066 622 
Q 2372 622 2575 867 
Q 2778 1113 2778 1672 
Q 2778 2194 2568 2447 
Q 2359 2700 2050 2700 
Q 1728 2700 1515 2451 
Q 1303 2203 1303 1716 
z
" transform="scale(0.015625)"/>
     <path id="Arial-BoldMT-72" d="M 1300 0 
L 422 0 
L 422 3319 
L 1238 3319 
L 1238 2847 
Q 1447 3181 1614 3287 
Q 1781 3394 1994 3394 
Q 2294 3394 2572 3228 
L 2300 2463 
Q 2078 2606 1888 2606 
Q 1703 2606 1575 2504 
Q 1447 2403 1373 2137 
Q 1300 1872 1300 1025 
L 1300 0 
z
" transform="scale(0.015625)"/>
     <path id="Arial-BoldMT-75" d="M 2644 0 
L 2644 497 
Q 2463 231 2167 78 
Q 1872 -75 1544 -75 
Q 1209 -75 943 72 
Q 678 219 559 484 
Q 441 750 441 1219 
L 441 3319 
L 1319 3319 
L 1319 1794 
Q 1319 1094 1367 936 
Q 1416 778 1544 686 
Q 1672 594 1869 594 
Q 2094 594 2272 717 
Q 2450 841 2515 1023 
Q 2581 1206 2581 1919 
L 2581 3319 
L 3459 3319 
L 3459 0 
L 2644 0 
z
" transform="scale(0.015625)"/>
     <path id="Arial-BoldMT-56" d="M 1634 0 
L -3 4581 
L 1000 4581 
L 2159 1191 
L 3281 4581 
L 4263 4581 
L 2622 0 
L 1634 0 
z
" transform="scale(0.015625)"/>
     <path id="Arial-BoldMT-6f" d="M 256 1706 
Q 256 2144 472 2553 
Q 688 2963 1083 3178 
Q 1478 3394 1966 3394 
Q 2719 3394 3200 2905 
Q 3681 2416 3681 1669 
Q 3681 916 3195 420 
Q 2709 -75 1972 -75 
Q 1516 -75 1102 131 
Q 688 338 472 736 
Q 256 1134 256 1706 
z
M 1156 1659 
Q 1156 1166 1390 903 
Q 1625 641 1969 641 
Q 2313 641 2545 903 
Q 2778 1166 2778 1666 
Q 2778 2153 2545 2415 
Q 2313 2678 1969 2678 
Q 1625 2678 1390 2415 
Q 1156 2153 1156 1659 
z
" transform="scale(0.015625)"/>
    </defs>
    <use xlink:href="#Arial-BoldMT-50"/>
    <use xlink:href="#Arial-BoldMT-61" transform="translate(66.699219 0)"/>
    <use xlink:href="#Arial-BoldMT-74" transform="translate(122.314453 0)"/>
    <use xlink:href="#Arial-BoldMT-65" transform="translate(155.615234 0)"/>
    <use xlink:href="#Arial-BoldMT-6e" transform="translate(211.230469 0)"/>
    <use xlink:href="#Arial-BoldMT-74" transform="translate(272.314453 0)"/>
    <use xlink:href="#Arial-BoldMT-20" transform="translate(305.615234 0)"/>
    <use xlink:href="#Arial-BoldMT-46" transform="translate(333.398438 0)"/>
    <use xlink:href="#Arial-BoldMT-61" transform="translate(394.482422 0)"/>
    <use xlink:href="#Arial-BoldMT-6d" transform="translate(450.097656 0)"/>
    <use xlink:href="#Arial-BoldMT-69" transform="translate(539.013672 0)"/>
    <use xlink:href="#Arial-BoldMT-6c" transform="translate(566.796875 0)"/>
    <use xlink:href="#Arial-BoldMT-79" transform="translate(594.580078 0)"/>
    <use xlink:href="#Arial-BoldMT-20" transform="translate(650.195312 0)"/>
    <use xlink:href="#Arial-BoldMT-34" transform="translate(677.978516 0)"/>
    <use xlink:href="#Arial-BoldMT-3a" transform="translate(733.59375 0)"/>
    <use xlink:href="#Arial-BoldMT-20" transform="translate(766.894531 0)"/>
    <use xlink:href="#Arial-BoldMT-49" transform="translate(794.677734 0)"/>
    <use xlink:href="#Arial-BoldMT-6e" transform="translate(822.460938 0)"/>
    <use xlink:href="#Arial-BoldMT-63" transform="translate(883.544922 0)"/>
    <use xlink:href="#Arial-BoldMT-61" transform="translate(939.160156 0)"/>
    <use xlink:href="#Arial-BoldMT-73" transform="translate(994.775391 0)"/>
    <use xlink:href="#Arial-BoldMT-74" transform="translate(1050.390625 0)"/>
    <use xlink:href="#Arial-BoldMT-20" transform="translate(1083.691406 0)"/>
    <use xlink:href="#Arial-BoldMT-42" transform="translate(1111.474609 0)"/>
    <use xlink:href="#Arial-BoldMT-61" transform="translate(1183.691406 0)"/>
    <use xlink:href="#Arial-BoldMT-63" transform="translate(1239.306641 0)"/>
    <use xlink:href="#Arial-BoldMT-6b" transform="translate(1294.921875 0)"/>
    <use xlink:href="#Arial-BoldMT-70" transform="translate(1350.537109 0)"/>
    <use xlink:href="#Arial-BoldMT-72" transform="translate(1411.621094 0)"/>
    <use xlink:href="#Arial-BoldMT-65" transform="translate(1450.537109 0)"/>
    <use xlink:href="#Arial-BoldMT-73" transform="translate(1506.152344 0)"/>
    <use xlink:href="#Arial-BoldMT-73" transform="translate(1561.767578 0)"/>
    <use xlink:href="#Arial-BoldMT-75" transform="translate(1617.382812 0)"/>
    <use xlink:href="#Arial-BoldMT-72" transform="translate(1678.466797 0)"/>
    <use xlink:href="#Arial-BoldMT-65" transform="translate(1717.382812 0)"/>
    <use xlink:href="#Arial-BoldMT-20" transform="translate(1772.998047 0)"/>
    <use xlink:href="#Arial-BoldMT-56" transform="translate(1800.78125 0)"/>
    <use xlink:href="#Arial-BoldMT-61" transform="translate(1861.980469 0)"/>
    <use xlink:href="#Arial-BoldMT-72" transform="translate(1917.595703 0)"/>
    <use xlink:href="#Arial-BoldMT-69" transform="translate(1956.511719 0)"/>
    <use xlink:href="#Arial-BoldMT-61" transform="translate(1984.294922 0)"/>
    <use xlink:href="#Arial-BoldMT-74" transform="translate(2039.910156 0)"/>
    <use xlink:href="#Arial-BoldMT-69" transform="translate(2073.210938 0)"/>
    <use xlink:href="#Arial-BoldMT-6f" transform="translate(2100.994141 0)"/>
    <use xlink:href="#Arial-BoldMT-6e" transform="translate(2162.078125 0)"/>
    <use xlink:href="#Arial-BoldMT-73" transform="translate(2223.162109 0)"/>
   </g>
  </g>
 </g>
 <defs>
  <clipPath id="p5e08125f35">
   <rect x="50.69625" y="93.84" width="370.93875" height="333.22"/>
  </clipPath>
  <clipPath id="p3f0d724a25">
   <rect x="478.37625" y="93.84" width="370.93875" height="333.22"/>
  </clipPath>
  <clipPath id="p747ff07503">
   <rect x="906.05625" y="93.84" width="370.93875" height="333.22"/>
  </clipPath>
  <clipPath id="p0972da57ab">
   <rect x="50.69625" y="468.96" width="370.93875" height="333.22"/>
  </clipPath>
  <clipPath id="p41cf44c33c">
   <rect x="478.37625" y="468.96" width="370.93875" height="333.22"/>
  </clipPath>
 </defs>
</svg>
